<?xml version="1.0" encoding="UTF-8"?>
<svg id="Layer_1" data-name="Layer 1" xmlns="http://www.w3.org/2000/svg" viewBox="0 0 457.63 535.61">
  <defs>
    <style>
      .cls-1, .cls-2 {
        stroke: #727272;
      }

      .cls-1, .cls-2, .cls-3, .cls-4 {
        stroke-width: .4px;
      }

      .cls-1, .cls-2, .cls-3, .cls-4, .cls-5 {
        stroke-linecap: round;
        stroke-linejoin: round;
      }

      .cls-1, .cls-4, .cls-5 {
        fill: none;
      }

      .cls-2 {
        fill: #c4d2d6;
      }

      .cls-6 {
        fill: #2170b7;
      }

      .cls-3 {
        fill: #fff;
      }

      .cls-3, .cls-4 {
        stroke: #88d5ec;
      }

      .cls-5 {
        stroke: #000;
        stroke-width: .37px;
      }

      .cls-7 {
        fill: #f7f7f7;
      }
    </style>
  </defs>
  <polygon class="cls-7" points="457.63 .54 .2 .54 .2 251.35 .2 257.02 .2 535.58 327.34 535.58 327.34 257.02 457.63 257.02 457.63 .54"/>
  <rect class="cls-4" x="341.51" y=".23" width="79.37" height="19.81"/>
  <rect class="cls-3" x="191.51" y=".2" width="34.07" height="19.84"/>
  <rect class="cls-3" x="38.45" y=".2" width="56.7" height="19.84"/>
  <rect class="cls-3" x=".2" y="305.97" width="19.84" height="79.4"/>
  <line class="cls-5" x1="267.92" y1="237.22" x2="318.94" y2="237.22"/>
  <g>
    <line class="cls-4" x1="12.96" y1="344.83" x2="12.96" y2="307.7"/>
    <line class="cls-4" x1="12.96" y1="383.67" x2="12.96" y2="346.54"/>
    <line class="cls-4" x1="10.97" y1="383.67" x2="10.97" y2="307.7"/>
    <line class="cls-4" x1=".2" y1="385.37" x2=".2" y2="306"/>
    <line class="cls-4" x1="20.04" y1="385.37" x2="20.04" y2="306"/>
    <line class="cls-4" x1="14.94" y1="383.67" x2="14.94" y2="307.7"/>
    <polyline class="cls-4" points="14.94 306 14.94 307.7 10.97 307.7 10.97 306 14.94 306"/>
    <polyline class="cls-4" points="14.94 346.54 14.94 344.83 10.97 344.83 10.97 346.54 14.94 346.54"/>
    <polyline class="cls-4" points="14.94 385.37 14.94 383.67 10.97 383.67 10.97 385.37 14.94 385.37"/>
  </g>
  <g>
    <line class="cls-4" x1="67.65" y1="3.03" x2="93.44" y2="3.03"/>
    <line class="cls-4" x1="40.15" y1="3.03" x2="65.95" y2="3.03"/>
    <line class="cls-4" x1="40.15" y1="1.05" x2="93.44" y2="1.05"/>
    <line class="cls-4" x1="38.4" y1=".23" x2="95.19" y2=".23"/>
    <line class="cls-4" x1="38.4" y1="20.04" x2="95.19" y2="20.04"/>
    <line class="cls-4" x1="40.15" y1="5.02" x2="93.44" y2="5.02"/>
    <polyline class="cls-4" points="95.14 5.02 93.44 5.02 93.44 1.05 95.14 1.05 95.14 5.02"/>
    <polyline class="cls-4" points="65.95 5.02 67.65 5.02 67.65 1.05 65.95 1.05 65.95 5.02"/>
    <polyline class="cls-4" points="38.45 5.02 40.15 5.02 40.15 1.05 38.45 1.05 38.45 5.02"/>
  </g>
  <g>
    <line class="cls-4" x1="193.24" y1="3.03" x2="223.85" y2="3.03"/>
    <line class="cls-4" x1="193.24" y1="1.05" x2="223.85" y2="1.05"/>
    <line class="cls-4" x1="191.51" y1=".23" x2="225.58" y2=".23"/>
    <line class="cls-4" x1="191.51" y1="20.04" x2="225.58" y2="20.04"/>
    <line class="cls-4" x1="193.24" y1="5.02" x2="223.85" y2="5.02"/>
    <polyline class="cls-4" points="225.55 5.02 223.85 5.02 223.85 1.05 225.55 1.05 225.55 5.02"/>
    <polyline class="cls-4" points="191.54 5.02 193.24 5.02 193.24 1.05 191.54 1.05 191.54 5.02"/>
  </g>
  <g>
    <rect class="cls-3" x="341.51" y=".2" width="79.37" height="19.84"/>
    <line class="cls-4" x1="382.05" y1="12.96" x2="419.18" y2="12.96"/>
    <line class="cls-4" x1="343.21" y1="12.96" x2="380.35" y2="12.96"/>
    <line class="cls-4" x1="343.21" y1="10.97" x2="419.18" y2="10.97"/>
    <line class="cls-4" x1="341.51" y1=".23" x2="420.88" y2=".23"/>
    <line class="cls-4" x1="341.51" y1="20.04" x2="420.88" y2="20.04"/>
    <line class="cls-4" x1="343.21" y1="14.94" x2="419.18" y2="14.94"/>
    <polyline class="cls-4" points="420.88 14.94 419.18 14.94 419.18 10.97 420.88 10.97 420.88 14.94"/>
    <polyline class="cls-4" points="380.35 14.94 382.05 14.94 382.05 10.97 380.35 10.97 380.35 14.94"/>
    <polyline class="cls-4" points="341.51 14.94 343.21 14.94 343.21 10.97 341.51 10.97 341.51 14.94"/>
  </g>
  <g>
    <line class="cls-1" x1="313.17" y1="504.41" x2="262.14" y2="504.41"/>
    <g>
      <path class="cls-1" d="M313.17,453.38c-28.18,0-51.02,22.84-51.02,51.02"/>
      <rect class="cls-2" x="313.17" y="453.38" width="14.17" height="51.02"/>
    </g>
  </g>
  <g>
    <path class="cls-1" d="M191.98,380.1c-.02,15.66,12.65,28.37,28.3,28.39M220.37,351.8c-15.66-.02-28.37,12.65-28.39,28.3M248.67,380.19c.02-15.66-12.65-28.37-28.3-28.39M220.28,408.49c15.66.02,28.37-12.65,28.39-28.3"/>
    <path class="cls-1" d="M267.74,332.88l-85.04-.13M182.77,287.39l130.39.2M225.22,332.81l.07-45.35M182.7,332.75l.07-45.35M267.61,417.92l.13-85.04M313.17,287.59l-.2,130.39M267.74,332.88l45.35.07M267.61,417.92l45.35.07M267.68,375.4l45.35.07M267.81,287.52l-.07,45.35"/>
    <g>
      <path class="cls-1" d="M160.09,102.83c2.4,1.34,5.1,2.07,7.85,2.13"/>
      <path class="cls-1" d="M165.2,90.36c0,.54.44.97.97.97M166.17,89.39c-.54,0-.97.44-.97.97M167.15,90.36c0-.54-.44-.97-.97-.97M166.17,91.34c.54,0,.97-.44.97-.97"/>
      <path class="cls-1" d="M178.34,100.61c1.73-2.54,2.7-5.52,2.79-8.6"/>
      <path class="cls-1" d="M170.61,104.91c3.13-.05,6.04-1.67,7.73-4.31"/>
      <path class="cls-1" d="M167.94,75.76c-2.75.06-5.44.79-7.85,2.13"/>
      <path class="cls-1" d="M178.34,80.12c-1.7-2.64-4.6-4.25-7.73-4.31"/>
      <path class="cls-1" d="M181.13,88.71c-.1-3.5-1.34-6.86-3.53-9.59"/>
      <path class="cls-1" d="M162.84,90.36c0,6.69,3.53,12.11,7.88,12.11M170.72,78.26c-4.35,0-7.88,5.42-7.88,12.11M178.6,90.36c0-6.69-3.53-12.11-7.88-12.11M170.72,102.47c4.35,0,7.88-5.42,7.88-12.11"/>
      <path class="cls-1" d="M181.13,88.56v3.3M167.94,75.76l2.67.05M167.94,104.96l2.67-.05M165.2,90.36h-5.1M166.17,89.39v-3.21M167.15,90.36h3.21M166.17,91.34v3.21M160.09,77.89v24.94"/>
    </g>
    <g>
      <path class="cls-1" d="M195.2,136.54c0-4.16-3.71-7.54-8.29-7.54M186.91,144.08c4.58,0,8.29-3.37,8.29-7.54M178.62,136.54c0,4.16,3.71,7.54,8.29,7.54M186.91,129c-4.58,0-8.29,3.37-8.29,7.54"/>
      <path class="cls-1" d="M170.02,146.56h0M166.55,150.03c1.92,0,3.47-1.56,3.47-3.47"/>
      <path class="cls-1" d="M170.02,126.21c0-1.92-1.56-3.47-3.47-3.47"/>
      <path class="cls-1" d="M176.93,144.98c-1.63-.76-3.48-.93-5.22-.49"/>
      <path class="cls-1" d="M171.7,128.46c2.19.55,4.52.13,6.38-1.16"/>
      <path class="cls-1" d="M192.77,127.86c-4.34-2.34-10.07-2.56-14.69-.56M196.06,142.48c4.38-4.73,2.91-11.27-3.28-14.61M176.93,144.98c6.19,3.34,14.75,2.22,19.13-2.51"/>
      <path class="cls-1" d="M160.09,122.73h6.47M170.02,146.56v-20.4M171.7,144.49v-16.03M166.55,150.03h-1.49M165.06,150.03h-4.96M160.1,150.03v-27.3"/>
    </g>
    <g>
      <path class="cls-1" d="M173.13,43.12c1,0,1.81-.81,1.81-1.81M171.32,41.3c0,1,.81,1.81,1.81,1.81M173.13,39.49c-1,0-1.81.81-1.81,1.81M174.95,41.3c0-1-.81-1.81-1.81-1.81"/>
      <path class="cls-1" d="M174.27,26.28c-3.76,0-6.8,3.05-6.8,6.8"/>
      <path class="cls-1" d="M171.72,23.73c-3.76,0-6.8,3.05-6.8,6.8"/>
      <path class="cls-1" d="M167.46,49.52c0,3.76,3.05,6.8,6.8,6.8"/>
      <path class="cls-1" d="M164.91,52.07c0,3.76,3.05,6.8,6.8,6.8"/>
      <path class="cls-1" d="M226.71,56.33l2.16-.37,2.03-1,1.78-1.48,1.39-1.81.95-2.11.52-2.24M235.78,58.88l1.59-.11,1.58-.15,1.56-.21,1.53-.31,1.48-.43,1.43-.6,1.55-.9,1.44-1.12,1.3-1.31,1.12-1.46.92-1.58.68-1.66.29-1.02.21-1.04.14-1.05.09-1.06.06-1.07.05-1.07M226.71,26.28l2.16.37,2.03,1,1.78,1.48,1.39,1.81.95,2.11.52,2.24.21,2.31.04,2.3M235.78,23.73l1.58.12,1.57.15,1.55.21,1.53.31,1.49.43,1.45.58,1.52.84,1.43,1.03,1.3,1.2,1.13,1.35.93,1.47.7,1.56.33,1.1.22,1.13.14,1.15.08,1.16.04,1.17.02,1.18"/>
      <path class="cls-1" d="M253.64,20.04h-93.54v42.52h93.54V20.04M164.91,30.53v21.54M167.46,33.08v16.44M252.79,39.89v2.83M235.78,39.89v2.83M174.27,56.33h52.44M171.72,58.88h64.06M226.71,26.28h-52.44M235.78,23.73h-64.06M173.13,43.12v5.67M173.13,39.49v-5.67M171.32,41.3h-11.23M174.95,41.3h5.67M235.53,47.33l.21-2.31.04-2.3"/>
    </g>
    <polyline class="cls-1" points="443.46 176.15 398.1 176.18 398.03 74.13 443.38 74.1 443.46 176.15"/>
    <g>
      <path class="cls-1" d="M366.91,157.78c0-7.04,5.7-12.76,12.75-12.76M379.67,170.53c-7.04,0-12.76-5.7-12.77-12.75M392.42,157.76c0,7.04-5.7,12.76-12.75,12.77M379.66,145.01c7.04,0,12.76,5.7,12.77,12.75"/>
      <path class="cls-1" d="M366.89,126.6c0-7.04,5.7-12.76,12.75-12.77M379.65,139.34c-7.04,0-12.76-5.7-12.77-12.75M392.4,126.58c0,7.04-5.7,12.76-12.75,12.77M379.63,113.83c7.04,0,12.76,5.7,12.77,12.75"/>
      <path class="cls-1" d="M366.86,95.42c0-7.04,5.7-12.76,12.75-12.77M379.63,108.16c-7.04,0-12.76-5.7-12.77-12.75M392.38,95.4c0,7.04-5.7,12.76-12.75,12.77M379.61,82.65c7.04,0,12.76,5.7,12.77,12.75"/>
    </g>
  </g>
  <g>
    <path class="cls-1" d="M267.92,175.41h34.02M301.93,110.21h-34.02"/>
    <line class="cls-1" x1="267.92" y1="89.07" x2="301.93" y2="89.07"/>
    <path class="cls-1" d="M301.93,57.89v31.18"/>
    <path class="cls-1" d="M287.63,66.73c0,2.66,2.15,4.81,4.81,4.81M292.44,61.92c-2.66,0-4.81,2.15-4.81,4.81M297.25,66.73c0-2.66-2.15-4.81-4.81-4.81M292.44,71.54c2.66,0,4.81-2.15,4.81-4.81"/>
    <path class="cls-1" d="M278.99,84.8c2.63-.34,4.49-2.76,4.14-5.39M273.6,80.66c.34,2.63,2.76,4.49,5.39,4.14M277.74,75.26c-2.63.34-4.49,2.76-4.14,5.39M283.13,79.41c-.34-2.63-2.76-4.49-5.39-4.14"/>
    <path class="cls-1" d="M288.32,79.73c0,2.2,1.78,3.98,3.98,3.98M292.3,75.76c-2.2,0-3.98,1.78-3.98,3.98M296.28,79.73c0-2.2-1.78-3.98-3.98-3.98M292.3,83.71c2.2,0,3.98-1.78,3.98-3.98"/>
    <path class="cls-1" d="M273.76,66.91c0,2.2,1.78,3.98,3.98,3.98M277.74,62.93c-2.2,0-3.98,1.78-3.98,3.98M281.71,66.91c0-2.2-1.78-3.98-3.98-3.98M277.74,70.89c2.2,0,3.98-1.78,3.98-3.98"/>
    <path class="cls-1" d="M294.11,141.56c1.57,0,2.83-1.27,2.83-2.83"/>
    <path class="cls-1" d="M272.71,138.72c0,1.57,1.27,2.83,2.83,2.83"/>
    <path class="cls-1" d="M275.55,114.79c-1.57,0-2.83,1.27-2.83,2.83"/>
    <path class="cls-1" d="M296.95,117.63c0-1.57-1.27-2.83-2.83-2.83"/>
    <path class="cls-1" d="M270.44,141.61c0,.65.52,1.17,1.17,1.17M271.61,140.44c-.65,0-1.17.52-1.17,1.17M272.78,141.61c0-.65-.52-1.17-1.17-1.17M271.61,142.78c.65,0,1.17-.52,1.17-1.17"/>
    <path class="cls-1" d="M274.8,136.72c0,.94.76,1.71,1.7,1.71M276.5,135.01c-.94,0-1.7.76-1.7,1.71M278.21,136.72c0-.94-.76-1.71-1.7-1.71M276.5,138.42c.94,0,1.7-.76,1.7-1.71"/>
    <path class="cls-1" d="M301.93,175.41V28.22M267.92,28.22h34.02M301.93,110.21h-34.02,34.02M267.92,110.21v65.2M270.43,142.79l6.07-6.07M272.71,143.52v25.65M274.13,143.52v25.65M275.55,143.52v25.65M276.97,143.52v25.65M278.4,143.52v25.65M279.82,143.52v25.65M281.24,143.52v25.65M282.66,143.52v25.65M284.08,143.52v25.65M285.5,143.52v25.65M286.92,143.52v25.65M288.34,143.52v25.65M289.76,143.52v25.65M291.18,143.52v25.65M292.6,143.52v25.65M294.02,143.52v25.65M295.44,143.52v25.65M296.86,143.52v25.65M294.11,114.79h-18.57M296.95,117.63v21.1M272.71,117.63v21.1M275.55,141.56h18.57M300.23,87.37h-30.61M269.62,87.37v-27.78M269.62,59.59h30.61M300.23,87.37v-27.78M301.93,89.07v-31.18h-34.02M267.92,57.89v31.18M267.92,57.89h34.02"/>
  </g>
  <g>
    <path class="cls-1" d="M318.94,237.22c0-28.18-22.84-51.02-51.02-51.02"/>
    <rect class="cls-1" x="259.41" y="186.19" width="8.5" height="51.02"/>
  </g>
  <g>
    <g>
      <line class="cls-1" x1="253.79" y1="168.66" x2="253.79" y2="123.31"/>
      <path class="cls-1" d="M253.79,123.31c-25.05,0-45.35,20.31-45.35,45.35"/>
    </g>
    <rect class="cls-1" x="208.44" y="168.66" width="45.36" height="8.22"/>
  </g>
  <g>
    <rect class="cls-6" x=".2" y=".2" width="38.25" height="19.84"/>
    <rect class="cls-6" x="95.15" y=".2" width="96.35" height="19.84"/>
    <rect class="cls-6" x="225.58" y=".2" width="115.93" height="19.84"/>
    <rect class="cls-6" x="420.88" y=".2" width="35.05" height="19.84"/>
    <rect class="cls-6" x=".2" y="20.04" width="28.35" height="25.51"/>
    <rect class="cls-6" x=".2" y="45.55" width="19.84" height="260.45"/>
    <rect class="cls-6" x=".2" y="385.37" width="19.84" height="150.21"/>
    <rect class="cls-6" x="5.87" y="242.85" width="22.68" height="39.69"/>
    <rect class="cls-6" x="18.27" y="521.44" width="309.07" height="14.17"/>
    <rect class="cls-6" x="311.78" y="505.88" width="16.95" height="14.17" transform="translate(833.22 192.71) rotate(90)"/>
    <rect class="cls-6" x="214.98" y="341.03" width="210.54" height="14.17" transform="translate(668.37 27.86) rotate(90)"/>
    <rect class="cls-6" x="259.41" y="237.22" width="8.5" height="14.13"/>
    <rect class="cls-6" x="259.41" y="20.04" width="8.5" height="166.15"/>
    <rect class="cls-6" x="151.59" y="20.04" width="8.5" height="179.99"/>
    <rect class="cls-6" x="267.92" y="242.85" width="45.25" height="8.5"/>
    <rect class="cls-6" x="326.83" y="242.85" width="130.8" height="14.17"/>
    <rect class="cls-6" x="287.66" y="251.35" width="25.51" height="14.17"/>
    <rect class="cls-6" x="329.22" y="114.44" width="242.65" height="14.17" transform="translate(572.07 -329.02) rotate(90)"/>
    <rect class="cls-6" x="287.89" y="11.71" width="39.45" height="16.85"/>
    <rect class="cls-6" x="159.97" y="168.66" width="48.47" height="8.22"/>
    <rect class="cls-6" x="253.8" y="168.66" width="5.61" height="8.22"/>
  </g>
</svg>