<?xml version="1.0" encoding="UTF-8"?>
<svg id="Layer_1" data-name="Layer 1" xmlns="http://www.w3.org/2000/svg" viewBox="0 0 492.38 535.61">
  <defs>
    <style>
      .cls-1, .cls-2 {
        stroke: #727272;
      }

      .cls-1, .cls-2, .cls-3, .cls-4 {
        stroke-linecap: round;
        stroke-linejoin: round;
        stroke-width: .4px;
      }

      .cls-1, .cls-4 {
        fill: none;
      }

      .cls-2 {
        fill: #c4d2d6;
      }

      .cls-5 {
        fill: #2170b7;
      }

      .cls-3 {
        fill: #fff;
      }

      .cls-3, .cls-4 {
        stroke: #88d5ec;
      }

      .cls-6 {
        fill: #f7f7f7;
      }
    </style>
  </defs>
  <polygon class="cls-6" points="492.15 262.72 492.15 535.61 133.43 535.61 133.43 257.02 0 257.02 0 .2 458.14 .2 458.14 262.72 492.15 262.72"/>
  <rect class="cls-3" x="472.34" y="364.71" width="19.84" height="90.74"/>
  <path class="cls-4" d="M489.35,409.24v-42.8M489.35,453.74v-42.8M491.33,453.74v-87.31M492.15,455.44v-90.71M472.34,455.44v-90.71M487.36,453.74v-87.31M487.36,364.74v1.7h3.97v-1.7h-3.97M487.36,410.94v-1.7h3.97v1.7h-3.97M487.36,455.44v-1.7h3.97v1.7h-3.97"/>
  <g>
    <rect class="cls-3" x="37.05" y=".2" width="79.37" height="19.84"/>
    <line class="cls-4" x1="77.59" y1="12.96" x2="114.72" y2="12.96"/>
    <line class="cls-4" x1="38.75" y1="12.96" x2="75.89" y2="12.96"/>
    <line class="cls-4" x1="38.75" y1="10.97" x2="114.72" y2="10.97"/>
    <line class="cls-4" x1="37.05" y1=".23" x2="116.42" y2=".23"/>
    <line class="cls-4" x1="37.05" y1="20.04" x2="116.42" y2="20.04"/>
    <line class="cls-4" x1="38.75" y1="14.94" x2="114.72" y2="14.94"/>
    <polyline class="cls-4" points="116.42 14.94 114.72 14.94 114.72 10.97 116.42 10.97 116.42 14.94"/>
    <polyline class="cls-4" points="75.89 14.94 77.59 14.94 77.59 10.97 75.89 10.97 75.89 14.94"/>
    <polyline class="cls-4" points="37.05 14.94 38.75 14.94 38.75 10.97 37.05 10.97 37.05 14.94"/>
  </g>
  <g>
    <rect class="cls-3" x="230.34" y=".2" width="34.02" height="19.84"/>
    <line class="cls-4" x1="232.04" y1="3.03" x2="262.66" y2="3.03"/>
    <line class="cls-4" x1="232.04" y1="1.05" x2="262.66" y2="1.05"/>
    <line class="cls-4" x1="230.34" y1=".23" x2="264.36" y2=".23"/>
    <line class="cls-4" x1="230.34" y1="20.04" x2="264.36" y2="20.04"/>
    <line class="cls-4" x1="232.04" y1="5.02" x2="262.66" y2="5.02"/>
    <polyline class="cls-4" points="264.36 5.02 262.66 5.02 262.66 1.05 264.36 1.05 264.36 5.02"/>
    <polyline class="cls-4" points="230.34 5.02 232.04 5.02 232.04 1.05 230.34 1.05 230.34 5.02"/>
  </g>
  <g>
    <rect class="cls-3" x="363.41" y=".23" width="56.69" height="19.81"/>
    <path class="cls-4" d="M363.41,5.02h1.7V1.05M392.61,3.03h25.8M365.11,3.03h25.8M365.11,1.05h53.29M365.11,5.02h53.29M420.11,5.02h-1.7V1.05h1.7v3.97M390.91,5.02h1.7V1.05h-1.7v3.97M365.11,1.05h-1.7v3.97M363.41.2h56.69M363.41,20.04h56.69"/>
  </g>
  <g>
    <g>
      <line class="cls-1" x1="147.6" y1="504.49" x2="198.63" y2="504.49"/>
      <path class="cls-1" d="M198.63,504.49c0-28.18-22.84-51.02-51.02-51.02"/>
    </g>
    <rect class="cls-2" x="133.43" y="453.46" width="14.17" height="51.02"/>
  </g>
  <g>
    <g>
      <line class="cls-1" x1="189.93" y1="237.19" x2="138.9" y2="237.19"/>
      <path class="cls-1" d="M189.93,186.16c-28.18,0-51.02,22.84-51.02,51.02"/>
    </g>
    <rect class="cls-1" x="189.93" y="186.19" width="8.5" height="50.99"/>
  </g>
  <g>
    <g>
      <line class="cls-1" x1="204.35" y1="168.66" x2="204.35" y2="123.31"/>
      <path class="cls-1" d="M249.71,168.66c0-25.05-20.31-45.35-45.35-45.35"/>
    </g>
    <rect class="cls-1" x="204.54" y="168.66" width="45.36" height="8.22"/>
  </g>
  <g>
    <g>
      <path class="cls-1" d="M212.1,374.16c.02,15.66,12.73,28.33,28.39,28.3M240.4,345.77c-15.66.02-28.33,12.73-28.3,28.39M268.79,374.07c-.02-15.66-12.73-28.33-28.39-28.3M240.49,402.46c15.66-.02,28.33-12.73,28.3-28.39"/>
      <path class="cls-1" d="M193.03,326.84l85.04-.13M278,281.36l-130.39.2M235.55,326.78l-.07-45.35M278.07,326.71l-.07-45.35M193.16,411.88l-.13-85.04M147.6,281.56l.2,130.39M193.03,326.84l-45.35.07M193.16,411.88l-45.35.07M193.09,369.36l-45.35.07M192.96,281.49l.07,45.35"/>
    </g>
    <g>
      <path class="cls-1" d="M298.22,102.83c-2.4,1.34-5.1,2.07-7.85,2.13"/>
      <path class="cls-1" d="M293.11,90.36c0,.54-.44.97-.97.97M292.14,89.39c.54,0,.97.44.97.97M291.16,90.36c0-.54.44-.97.97-.97M292.14,91.34c-.54,0-.97-.44-.97-.97"/>
      <path class="cls-1" d="M279.97,100.61c-1.73-2.54-2.7-5.52-2.79-8.6"/>
      <path class="cls-1" d="M287.7,104.91c-3.13-.05-6.04-1.67-7.73-4.31"/>
      <path class="cls-1" d="M290.37,75.76c2.75.06,5.44.79,7.85,2.13"/>
      <path class="cls-1" d="M279.97,80.12c1.7-2.64,4.6-4.25,7.73-4.31"/>
      <path class="cls-1" d="M277.18,88.71c.1-3.5,1.34-6.86,3.53-9.59"/>
      <path class="cls-1" d="M295.47,90.36c0,6.69-3.53,12.11-7.88,12.11M287.59,78.25c4.35,0,7.88,5.42,7.88,12.11M279.71,90.36c0-6.69,3.53-12.11,7.88-12.11M287.59,102.47c-4.35,0-7.88-5.42-7.88-12.11"/>
      <path class="cls-1" d="M277.18,88.56v3.3M290.37,75.76l-2.67.05M290.37,104.96l-2.67-.05M293.11,90.36h5.1M292.14,89.39v-3.21M291.16,90.36h-3.21M292.14,91.34v3.21M298.22,77.89v24.94"/>
    </g>
    <g>
      <path class="cls-1" d="M263.11,136.54c0-4.16,3.71-7.54,8.29-7.54M271.4,144.08c-4.58,0-8.29-3.37-8.29-7.54M279.69,136.54c0,4.16-3.71,7.54-8.29,7.54M271.4,129c4.58,0,8.29,3.37,8.29,7.54"/>
      <path class="cls-1" d="M288.29,146.56h0M291.76,150.03c-1.92,0-3.47-1.56-3.47-3.47"/>
      <path class="cls-1" d="M288.29,126.21c0-1.92,1.56-3.47,3.47-3.47"/>
      <path class="cls-1" d="M281.38,144.98c1.63-.76,3.48-.93,5.22-.49"/>
      <path class="cls-1" d="M286.61,128.46c-2.19.55-4.52.13-6.38-1.16"/>
      <path class="cls-1" d="M265.54,127.86c4.34-2.34,10.07-2.56,14.69-.56M262.26,142.48c-4.38-4.73-2.91-11.27,3.28-14.61M281.38,144.98c-6.19,3.34-14.75,2.22-19.13-2.51"/>
      <path class="cls-1" d="M298.22,122.73h-6.47M288.29,146.56v-20.4M286.61,144.49v-16.03M291.76,150.03h1.49M293.25,150.03h4.96M298.22,150.03v-27.3"/>
    </g>
    <g>
      <path class="cls-1" d="M285.18,43.12c-1,0-1.81-.81-1.81-1.81M286.99,41.3c0,1-.81,1.81-1.81,1.81M285.18,39.49c1,0,1.81.81,1.81,1.81M283.36,41.3c0-1,.81-1.81,1.81-1.81"/>
      <path class="cls-1" d="M284.04,26.28c3.76,0,6.8,3.05,6.8,6.8"/>
      <path class="cls-1" d="M286.59,23.73c3.76,0,6.8,3.05,6.8,6.8"/>
      <path class="cls-1" d="M290.85,49.52c0,3.76-3.05,6.8-6.8,6.8"/>
      <path class="cls-1" d="M293.4,52.07c0,3.76-3.05,6.8-6.8,6.8"/>
      <path class="cls-1" d="M231.6,56.33l-2.16-.37-2.03-1-1.78-1.48-1.39-1.81-.95-2.11-.52-2.24M222.53,58.88l-1.59-.11-1.58-.15-1.56-.21-1.53-.31-1.48-.43-1.43-.6-1.55-.9-1.44-1.12-1.3-1.31-1.12-1.46-.92-1.58-.68-1.66-.29-1.02-.21-1.04-.14-1.05-.09-1.06-.06-1.07-.05-1.07M231.6,26.28l-2.16.37-2.03,1-1.78,1.48-1.39,1.81-.95,2.11-.52,2.24-.21,2.31-.04,2.3M222.53,23.73l-1.58.12-1.57.15-1.55.21-1.53.31-1.49.43-1.45.58-1.52.84-1.43,1.03-1.3,1.2-1.13,1.35-.93,1.47-.7,1.56-.33,1.1-.22,1.13-.14,1.15-.08,1.16-.04,1.17-.02,1.18"/>
      <path class="cls-1" d="M204.67,20.04h93.54v42.52h-93.54V20.04M293.4,30.53v21.54M290.85,33.08v16.44M205.52,39.88v2.83M222.53,39.88v2.83M284.04,56.33h-52.44M286.59,58.88h-64.06M231.6,26.28h52.44M222.53,23.73h64.06M285.18,43.12v5.67M285.18,39.49v-5.67M286.99,41.3h11.23M283.36,41.3h-5.67M222.79,47.33l-.21-2.31-.04-2.3"/>
    </g>
    <polyline class="cls-1" points="14.18 176.15 59.53 176.18 59.61 74.13 14.25 74.1 14.18 176.15"/>
    <g>
      <path class="cls-1" d="M90.73,157.78c0-7.04-5.7-12.76-12.75-12.76M77.96,170.53c7.04,0,12.76-5.7,12.77-12.75M65.21,157.76c0,7.04,5.7,12.76,12.75,12.77M77.98,145.01c-7.04,0-12.76,5.7-12.77,12.75"/>
      <path class="cls-1" d="M90.75,126.6c0-7.04-5.7-12.76-12.75-12.77M77.98,139.34c7.04,0,12.76-5.7,12.77-12.75M65.24,126.58c0,7.04,5.7,12.76,12.75,12.77M78,113.83c-7.04,0-12.76,5.7-12.77,12.75"/>
      <path class="cls-1" d="M90.77,95.42c0-7.04-5.7-12.76-12.75-12.77M78.01,108.16c7.04,0,12.76-5.7,12.77-12.75M65.26,95.4c0,7.04,5.7,12.76,12.75,12.77M78.03,82.65c-7.04,0-12.76,5.7-12.77,12.75"/>
    </g>
  </g>
  <g>
    <line class="cls-1" x1="189.93" y1="175.72" x2="155.91" y2="175.72"/>
    <line class="cls-1" x1="155.91" y1="110.52" x2="189.93" y2="110.52"/>
    <line class="cls-1" x1="189.93" y1="89.38" x2="155.91" y2="89.38"/>
    <line class="cls-1" x1="155.91" y1="58.2" x2="155.91" y2="89.38"/>
    <path class="cls-1" d="M160.59,67.04c0,2.66,2.15,4.81,4.81,4.81M165.4,62.24c-2.66,0-4.81,2.15-4.81,4.81M170.21,67.04c0-2.66-2.15-4.81-4.81-4.81M165.4,71.85c2.66,0,4.81-2.15,4.81-4.81"/>
    <path class="cls-1" d="M180.1,75.58c-2.63-.34-5.05,1.51-5.39,4.14M184.25,80.97c.34-2.63-1.51-5.05-4.14-5.39M178.85,85.11c2.63.34,5.05-1.51,5.39-4.14M174.71,79.72c-.34,2.63,1.51,5.05,4.14,5.39"/>
    <path class="cls-1" d="M161.56,80.05c0,2.2,1.78,3.98,3.98,3.98M165.54,76.07c-2.2,0-3.98,1.78-3.98,3.98M169.52,80.05c0-2.2-1.78-3.98-3.98-3.98M165.54,84.02c2.2,0,3.98-1.78,3.98-3.98"/>
    <path class="cls-1" d="M176.13,67.22c0,2.2,1.78,3.98,3.98,3.98M180.11,63.25c-2.2,0-3.98,1.78-3.98,3.98M184.08,67.22c0-2.2-1.78-3.98-3.98-3.98M180.11,71.2c2.2,0,3.98-1.78,3.98-3.98"/>
    <path class="cls-1" d="M160.89,139.03c0,1.57,1.27,2.83,2.83,2.83"/>
    <path class="cls-1" d="M182.3,141.87c1.57,0,2.83-1.27,2.83-2.83"/>
    <path class="cls-1" d="M185.13,117.94c0-1.57-1.27-2.83-2.83-2.83"/>
    <path class="cls-1" d="M163.73,115.1c-1.57,0-2.83,1.27-2.83,2.83"/>
    <path class="cls-1" d="M185.06,141.92c0,.65.52,1.17,1.17,1.17M186.23,140.75c-.65,0-1.17.52-1.17,1.17M187.4,141.92c0-.65-.52-1.17-1.17-1.17M186.23,143.09c.65,0,1.17-.52,1.17-1.17"/>
    <path class="cls-1" d="M179.64,137.03c0,.94.76,1.71,1.7,1.71M181.34,135.33c-.94,0-1.7.76-1.7,1.7M183.05,137.03c0-.94-.76-1.7-1.7-1.7M181.34,138.74c.94,0,1.7-.76,1.7-1.71"/>
    <path class="cls-1" d="M155.91,175.72V28.53M189.93,28.53h-34.02M155.91,110.52h34.02-34.02M189.93,110.52v65.2M187.41,143.1l-6.07-6.07M185.13,143.83v25.65M183.71,143.83v25.65M182.29,143.83v25.65M180.87,143.83v25.65M179.45,143.83v25.65M178.03,143.83v25.65M176.61,143.83v25.65M175.19,143.83v25.65M173.76,143.83v25.65M172.34,143.83v25.65M170.92,143.83v25.65M169.5,143.83v25.65M168.08,143.83v25.65M166.66,143.83v25.65M165.24,143.83v25.65M163.82,143.83v25.65M162.4,143.83v25.65M160.98,143.83v25.65M163.73,115.1h18.57M160.89,117.94v21.1M185.13,117.94v21.1M182.3,141.87h-18.57M157.61,87.68h30.61M188.23,87.68v-27.78M188.23,59.9h-30.61M157.61,87.68v-27.78M155.91,89.38v-31.18h34.02M189.93,58.2v31.18M189.93,58.2h-34.02"/>
  </g>
  <g>
    <rect class="cls-5" x="420.11" y=".2" width="38.03" height="19.84" transform="translate(878.24 20.24) rotate(-180)"/>
    <rect class="cls-5" x="264.36" y=".2" width="99.06" height="19.84" transform="translate(627.77 20.24) rotate(-180)"/>
    <rect class="cls-5" x="116.42" y=".2" width="113.92" height="19.84" transform="translate(346.76 20.24) rotate(-180)"/>
    <rect class="cls-5" x="2.41" y=".2" width="34.65" height="19.84" transform="translate(39.46 20.24) rotate(-180)"/>
    <rect class="cls-5" x="429.79" y="20.04" width="28.35" height="25.51" transform="translate(887.93 65.6) rotate(-180)"/>
    <rect class="cls-5" x="438.29" y="45.55" width="19.84" height="236.98" transform="translate(896.43 328.08) rotate(-180)"/>
    <rect class="cls-5" x="472.34" y="455.44" width="19.84" height="80.13" transform="translate(964.52 991.02) rotate(-180)"/>
    <rect class="cls-5" x="472.34" y="282.53" width="19.84" height="82.18" transform="translate(964.52 647.24) rotate(-180)"/>
    <rect class="cls-5" x="429.79" y="242.85" width="22.68" height="39.69" transform="translate(882.26 525.38) rotate(-180)"/>
    <rect class="cls-5" x="133.43" y="521.44" width="338.91" height="14.17" transform="translate(605.7685 1057.0512) rotate(-180)"/>
    <rect class="cls-5" x="132.04" y="505.88" width="16.95" height="14.17" transform="translate(653.48 372.45) rotate(90)"/>
    <rect class="cls-5" x="35.25" y="341.03" width="210.54" height="14.17" transform="translate(488.63 207.6) rotate(90)"/>
    <rect class="cls-5" x="189.93" y="237.22" width="8.5" height="14.13" transform="translate(388.36 488.57) rotate(-180)"/>
    <rect class="cls-5" x="189.93" y="20.04" width="8.5" height="166.15" transform="translate(388.36 206.23) rotate(-180)"/>
    <rect class="cls-5" x="298.24" y="20.04" width="8.5" height="179.99" transform="translate(604.99 220.08) rotate(-180)"/>
    <rect class="cls-5" x="145.17" y="242.85" width="45.25" height="8.5" transform="translate(335.59 494.2) rotate(-180)"/>
    <rect class="cls-5" x="0" y="242.85" width="133.43" height="14.17" transform="translate(133.43 499.86) rotate(-180)"/>
    <rect class="cls-5" x="147.6" y="251.35" width="25.51" height="14.17" transform="translate(320.72 516.87) rotate(-180)"/>
    <rect class="cls-5" x="-114.23" y="114.44" width="242.65" height="14.17" transform="translate(128.61 114.43) rotate(90)"/>
    <rect class="cls-5" x="134.11" y="11.71" width="39.45" height="16.85" transform="translate(307.68 40.28) rotate(-180)"/>
    <rect class="cls-5" x="249.9" y="168.66" width="48.47" height="8.22" transform="translate(548.27 345.55) rotate(-180)"/>
    <rect class="cls-5" x="198.43" y="168.66" width="6.11" height="8.22" transform="translate(402.97 345.55) rotate(-180)"/>
    <rect class="cls-5" x="453.61" y="262.69" width="38.54" height="19.84"/>
  </g>
</svg>