<?xml version="1.0" encoding="UTF-8"?>
<svg id="Layer_1" data-name="Layer 1" xmlns="http://www.w3.org/2000/svg" viewBox="0 0 409.86 420.66">
  <defs>
    <style>
      .cls-1, .cls-2 {
        stroke: #727272;
      }

      .cls-1, .cls-2, .cls-3, .cls-4, .cls-5 {
        stroke-linecap: round;
        stroke-linejoin: round;
      }

      .cls-1, .cls-2, .cls-3, .cls-5 {
        stroke-width: .4px;
      }

      .cls-1, .cls-5 {
        fill: none;
      }

      .cls-2 {
        fill: #c4d2d6;
      }

      .cls-6 {
        fill: #2170b7;
      }

      .cls-3, .cls-4 {
        fill: #fff;
      }

      .cls-3, .cls-4, .cls-5 {
        stroke: #88d5ec;
      }

      .cls-4 {
        stroke-width: .4px;
      }

      .cls-7 {
        fill: #f7f7f7;
      }
    </style>
  </defs>
  <rect class="cls-7" x=".2" width="409.46" height="420.66"/>
  <rect class="cls-3" x=".2" y="130.36" width="19.84" height="79.43"/>
  <g>
    <rect class="cls-4" x=".2" y="311.1" width="19.84" height="79.37"/>
    <path class="cls-5" d="M12.96,390.47v-1.7h-3.97M10.97,349.93v-37.13M10.97,388.77v-37.13M8.99,388.77v-75.97M12.96,388.77v-75.97M12.96,311.1v1.7h-3.97v-1.7h3.97M12.96,351.63v-1.7h-3.97v1.7h3.97M8.99,388.77v1.7h3.97M.2,311.1v79.37M20.04,311.1v79.37"/>
  </g>
  <g>
    <line class="cls-5" x1="14.94" y1="208.06" x2="14.94" y2="132.09"/>
    <line class="cls-5" x1="12.96" y1="169.22" x2="12.96" y2="132.09"/>
    <line class="cls-5" x1="12.96" y1="208.06" x2="12.96" y2="170.92"/>
    <line class="cls-5" x1="10.97" y1="208.06" x2="10.97" y2="132.09"/>
    <polyline class="cls-5" points="14.94 130.39 14.94 132.09 10.97 132.09 10.97 130.39 14.94 130.39"/>
    <polyline class="cls-5" points="14.94 170.92 14.94 169.22 10.97 169.22 10.97 170.92 14.94 170.92"/>
    <polyline class="cls-5" points="14.94 209.76 14.94 208.06 10.97 208.06 10.97 209.76 14.94 209.76"/>
    <line class="cls-5" x1=".2" y1="130.39" x2=".2" y2="209.76"/>
    <line class="cls-5" x1="20.04" y1="130.39" x2="20.04" y2="209.76"/>
  </g>
  <g>
    <g>
      <line class="cls-1" x1="277.43" y1="144.69" x2="277.43" y2="99.33"/>
      <path class="cls-1" d="M322.78,144.69c0-25.05-20.31-45.35-45.35-45.35"/>
    </g>
    <rect class="cls-1" x="277.43" y="144.69" width="45.35" height="8.5"/>
  </g>
  <g>
    <g>
      <line class="cls-1" x1="263.19" y1="222.98" x2="212.16" y2="222.98"/>
      <path class="cls-1" d="M263.19,171.96c-28.18,0-51.02,22.84-51.02,51.02"/>
    </g>
    <rect class="cls-1" x="263.19" y="171.96" width="8.5" height="51.02"/>
  </g>
  <g>
    <g>
      <line class="cls-1" x1="395.49" y1="161.75" x2="344.46" y2="161.75"/>
      <path class="cls-1" d="M344.46,161.75c0,28.18,22.84,51.02,51.02,51.02"/>
    </g>
    <rect class="cls-2" x="395.53" y="161.72" width="14.13" height="51.05"/>
  </g>
  <g>
    <g>
      <polyline class="cls-1" points="206.48 14.17 76.09 14.17 76.09 34.02"/>
      <line class="cls-1" x1="95.93" y1="127.56" x2="186.64" y2="127.56"/>
      <g>
        <line class="cls-1" x1="98.76" y1="124.72" x2="98.76" y2="58.16"/>
        <polyline class="cls-1" points="98.76 124.72 183.8 124.72 183.8 58.16"/>
        <line class="cls-1" x1="95.93" y1="14.17" x2="95.93" y2="34.02"/>
        <line class="cls-1" x1="76.09" y1="34.02" x2="95.93" y2="34.02"/>
        <line class="cls-1" x1="186.64" y1="14.17" x2="186.64" y2="34.02"/>
        <line class="cls-1" x1="206.48" y1="14.17" x2="206.48" y2="34.02"/>
        <line class="cls-1" x1="206.48" y1="34.02" x2="186.64" y2="34.02"/>
        <line class="cls-1" x1="174.9" y1="46.36" x2="174.9" y2="18.02"/>
        <polyline class="cls-1" points="174.9 46.36 140.88 46.36 140.88 18.02 174.9 18.02"/>
        <line class="cls-1" x1="186.64" y1="127.56" x2="186.64" y2="14.17"/>
        <line class="cls-1" x1="95.93" y1="127.56" x2="95.93" y2="14.17"/>
        <line class="cls-1" x1="107.68" y1="46.36" x2="107.68" y2="18.02"/>
        <polyline class="cls-1" points="107.68 46.36 141.69 46.36 141.69 18.02 107.68 18.02"/>
        <polyline class="cls-1" points="175.78 50.15 106.78 50.15 98.76 58.16"/>
        <polyline class="cls-1" points="98.76 58.16 106.78 58.16 106.78 50.15"/>
        <polyline class="cls-1" points="175.78 58.16 183.8 58.16 175.78 50.15"/>
        <line class="cls-1" x1="175.78" y1="58.16" x2="175.78" y2="50.15"/>
      </g>
    </g>
    <g>
      <path class="cls-1" d="M395.49,73.59c-2.4-1.34-5.1-2.07-7.85-2.13"/>
      <path class="cls-1" d="M390.39,86.06c0-.54-.44-.97-.97-.97M389.41,87.04c.54,0,.97-.44.97-.97M388.44,86.06c0,.54.44.97.97.97M389.41,85.09c-.54,0-.97.44-.97.97"/>
      <path class="cls-1" d="M377.24,75.82c-1.73,2.54-2.7,5.52-2.79,8.6"/>
      <path class="cls-1" d="M384.97,71.51c-3.13.05-6.04,1.67-7.73,4.31"/>
      <path class="cls-1" d="M387.64,100.66c2.75-.06,5.44-.79,7.85-2.13"/>
      <path class="cls-1" d="M377.24,96.31c1.7,2.64,4.6,4.25,7.73,4.31"/>
      <path class="cls-1" d="M374.45,87.71c.1,3.5,1.34,6.86,3.53,9.59"/>
      <path class="cls-1" d="M392.74,86.06c0-6.69-3.53-12.11-7.88-12.11M384.86,98.17c4.35,0,7.88-5.42,7.88-12.11M376.98,86.06c0,6.69,3.53,12.11,7.88,12.11M384.86,73.95c-4.35,0-7.88,5.42-7.88,12.11"/>
      <path class="cls-1" d="M374.45,87.86v-3.3M387.64,100.66l-2.67-.05M387.64,71.46l-2.67.05M390.39,86.06h5.1M389.41,87.04v3.21M388.44,86.06h-3.21M389.41,85.09v-3.21M395.49,98.53v-24.94"/>
    </g>
    <g>
      <path class="cls-1" d="M360.38,124.6c0,4.16,3.71,7.54,8.29,7.54M368.67,117.06c-4.58,0-8.29,3.37-8.29,7.54M376.96,124.6c0-4.16-3.71-7.54-8.29-7.54M368.67,132.14c4.58,0,8.29-3.37,8.29-7.54"/>
      <path class="cls-1" d="M385.56,114.58h0M389.03,111.11c-1.92,0-3.47,1.56-3.47,3.47"/>
      <path class="cls-1" d="M385.56,134.93c0,1.92,1.56,3.47,3.47,3.47"/>
      <path class="cls-1" d="M378.65,116.16c1.63.76,3.48.93,5.22.49"/>
      <path class="cls-1" d="M383.88,132.68c-2.19-.55-4.52-.13-6.38,1.16"/>
      <path class="cls-1" d="M362.81,133.28c4.34,2.34,10.07,2.56,14.69.56M359.53,118.66c-4.38,4.73-2.91,11.27,3.28,14.61M378.65,116.16c-6.19-3.34-14.75-2.22-19.13,2.51"/>
      <path class="cls-1" d="M395.49,138.41h-6.47M385.56,114.58v20.4M383.88,116.65v16.03M389.03,111.11h1.49M390.52,111.11h4.96M395.49,111.11v27.3"/>
    </g>
    <g>
      <path class="cls-1" d="M382.45,42.12c-1,0-1.81.81-1.81,1.81M384.26,43.94c0-1-.81-1.81-1.81-1.81M382.45,45.75c1,0,1.81-.81,1.81-1.81M380.63,43.94c0,1,.81,1.81,1.81,1.81"/>
      <path class="cls-1" d="M381.31,58.96c3.76,0,6.8-3.05,6.8-6.8"/>
      <path class="cls-1" d="M383.87,61.51c3.76,0,6.8-3.05,6.8-6.8"/>
      <path class="cls-1" d="M388.12,35.72c0-3.76-3.05-6.8-6.8-6.8"/>
      <path class="cls-1" d="M390.67,33.17c0-3.76-3.05-6.8-6.8-6.8"/>
      <path class="cls-1" d="M328.87,28.91l-2.16.37-2.03,1-1.78,1.48-1.39,1.81-.95,2.11-.52,2.24M319.8,26.36l-1.59.11-1.58.15-1.56.21-1.53.31-1.48.43-1.43.6-1.55.9-1.44,1.12-1.3,1.31-1.12,1.46-.92,1.58-.68,1.66-.29,1.02-.21,1.04-.14,1.05-.09,1.06-.06,1.07-.05,1.07M328.87,58.96l-2.16-.37-2.03-1-1.78-1.48-1.39-1.81-.95-2.11-.52-2.24-.21-2.31-.04-2.3M319.8,61.51l-1.58-.12-1.57-.15-1.55-.21-1.53-.31-1.49-.43-1.45-.58-1.52-.84-1.43-1.03-1.3-1.2-1.13-1.35-.93-1.47-.7-1.56-.33-1.1-.22-1.13-.14-1.15-.08-1.16-.04-1.17-.02-1.18"/>
      <path class="cls-1" d="M301.94,65.2h93.54V22.68h-93.54v42.52M390.67,54.71v-21.54M388.12,52.16v-16.44M302.79,45.35v-2.83M319.8,45.35v-2.83M381.31,28.91h-52.44M383.87,26.36h-64.06M328.87,58.96h52.44M319.8,61.51h64.06M382.45,42.12v-5.67M382.45,45.75v5.67M384.26,43.94h11.23M380.63,43.94h-5.67M320.06,37.91l-.21,2.31-.04,2.3"/>
    </g>
  </g>
  <g>
    <path class="cls-1" d="M166.3,237.24v34.02M101.1,271.26v-34.02"/>
    <line class="cls-1" x1="79.96" y1="237.24" x2="79.96" y2="271.26"/>
    <line class="cls-1" x1="48.78" y1="271.26" x2="79.96" y2="271.26"/>
    <path class="cls-1" d="M179.81,271.26v-34.02M79.96,237.24h99.85M166.3,271.26h13.51M48.78,271.26h-28.74M166.3,271.26H49.32"/>
    <path class="cls-1" d="M57.62,266.58c2.66,0,4.81-2.15,4.81-4.81M52.81,261.77c0,2.66,2.15,4.81,4.81,4.81M57.62,256.96c-2.66,0-4.81,2.15-4.81,4.81M62.43,261.77c0-2.66-2.15-4.81-4.81-4.81"/>
    <path class="cls-1" d="M66.16,247.06c-.34,2.63,1.51,5.05,4.14,5.39M71.55,242.92c-2.63-.34-5.05,1.51-5.39,4.14M75.69,248.31c.34-2.63-1.51-5.05-4.14-5.39M70.3,252.46c2.63.34,5.05-1.51,5.39-4.14"/>
    <path class="cls-1" d="M70.63,265.6c2.2,0,3.98-1.78,3.98-3.98M66.65,261.63c0,2.2,1.78,3.98,3.98,3.98M70.63,257.65c-2.2,0-3.98,1.78-3.98,3.98M74.6,261.63c0-2.2-1.78-3.98-3.98-3.98"/>
    <path class="cls-1" d="M57.8,251.04c2.2,0,3.98-1.78,3.98-3.98M53.83,247.06c0,2.2,1.78,3.98,3.98,3.98M57.8,243.09c-2.2,0-3.98,1.78-3.98,3.98M61.78,247.06c0-2.2-1.78-3.98-3.98-3.98"/>
    <path class="cls-1" d="M129.61,266.28c1.57,0,2.83-1.27,2.83-2.83"/>
    <path class="cls-1" d="M132.45,244.87c0-1.57-1.27-2.83-2.83-2.83"/>
    <path class="cls-1" d="M108.52,242.04c-1.57,0-2.83,1.27-2.83,2.83"/>
    <path class="cls-1" d="M105.68,263.44c0,1.57,1.27,2.83,2.83,2.83"/>
    <path class="cls-1" d="M132.5,242.11c.65,0,1.17-.52,1.17-1.17M131.33,240.94c0,.65.52,1.17,1.17,1.17M132.5,239.77c-.65,0-1.17.52-1.17,1.17M133.67,240.94c0-.65-.52-1.17-1.17-1.17"/>
    <path class="cls-1" d="M127.61,247.53c.94,0,1.7-.76,1.7-1.71M125.91,245.83c0,.94.76,1.71,1.7,1.71M127.61,244.12c-.94,0-1.7.76-1.7,1.7M129.32,245.83c0-.94-.76-1.7-1.7-1.7"/>
    <line class="cls-1" x1="45.55" y1="237.24" x2="53.58" y2="237.24"/>
    <polyline class="cls-1" points="101.1 271.26 101.1 237.24 101.1 271.26"/>
    <line class="cls-1" x1="133.68" y1="239.76" x2="127.61" y2="245.83"/>
    <line class="cls-1" x1="134.41" y1="242.04" x2="160.06" y2="242.04"/>
    <line class="cls-1" x1="134.41" y1="243.46" x2="160.06" y2="243.46"/>
    <line class="cls-1" x1="134.41" y1="244.88" x2="160.06" y2="244.88"/>
    <line class="cls-1" x1="134.41" y1="246.3" x2="160.06" y2="246.3"/>
    <line class="cls-1" x1="134.41" y1="247.72" x2="160.06" y2="247.72"/>
    <line class="cls-1" x1="134.41" y1="249.14" x2="160.06" y2="249.14"/>
    <line class="cls-1" x1="134.41" y1="250.56" x2="160.06" y2="250.56"/>
    <line class="cls-1" x1="134.41" y1="251.98" x2="160.06" y2="251.98"/>
    <line class="cls-1" x1="134.41" y1="253.4" x2="160.06" y2="253.4"/>
    <line class="cls-1" x1="134.41" y1="254.82" x2="160.06" y2="254.82"/>
    <line class="cls-1" x1="134.41" y1="256.25" x2="160.06" y2="256.25"/>
    <line class="cls-1" x1="134.41" y1="257.67" x2="160.06" y2="257.67"/>
    <line class="cls-1" x1="134.41" y1="259.09" x2="160.06" y2="259.09"/>
    <line class="cls-1" x1="134.41" y1="260.51" x2="160.06" y2="260.51"/>
    <line class="cls-1" x1="134.41" y1="261.93" x2="160.06" y2="261.93"/>
    <line class="cls-1" x1="134.41" y1="263.35" x2="160.06" y2="263.35"/>
    <line class="cls-1" x1="134.41" y1="264.77" x2="160.06" y2="264.77"/>
    <line class="cls-1" x1="134.41" y1="266.19" x2="160.06" y2="266.19"/>
    <line class="cls-1" x1="105.68" y1="263.44" x2="105.68" y2="244.87"/>
    <line class="cls-1" x1="108.52" y1="266.28" x2="129.61" y2="266.28"/>
    <line class="cls-1" x1="108.52" y1="242.04" x2="129.61" y2="242.04"/>
    <line class="cls-1" x1="132.45" y1="244.87" x2="132.45" y2="263.44"/>
    <line class="cls-1" x1="78.26" y1="269.56" x2="78.26" y2="238.94"/>
    <line class="cls-1" x1="78.26" y1="238.94" x2="50.48" y2="238.94"/>
    <line class="cls-1" x1="50.48" y1="238.94" x2="50.48" y2="269.56"/>
    <line class="cls-1" x1="78.26" y1="269.56" x2="50.48" y2="269.56"/>
    <polyline class="cls-1" points="79.96 271.26 48.78 271.26 48.78 237.24"/>
    <line class="cls-1" x1="48.78" y1="237.24" x2="79.96" y2="237.24"/>
    <line class="cls-1" x1="48.78" y1="237.24" x2="48.78" y2="271.26"/>
  </g>
  <g>
    <rect class="cls-6" x=".2" y="0" width="19.84" height="130.39"/>
    <rect class="cls-6" x=".2" y="209.76" width="19.84" height="101.34"/>
    <rect class="cls-6" x=".2" y="390.47" width="19.84" height="30.2"/>
    <rect class="cls-6" x="18.27" y="0" width="391.39" height="14.17"/>
    <rect class="cls-6" x="207.89" y="218.89" width="13.92" height="389.62" transform="translate(628.55 198.85) rotate(90)"/>
    <rect class="cls-6" x="395.53" y="14.17" width="14.13" height="147.57"/>
    <rect class="cls-6" x="395.53" y="212.77" width="14.13" height="193.97"/>
    <rect class="cls-6" x="20.04" y="229.79" width="25.51" height="22.68"/>
    <rect class="cls-6" x="45.55" y="229.79" width="281.79" height="8.5"/>
    <rect class="cls-6" x="287.66" y="231.49" width="39.69" height="20.98"/>
    <rect class="cls-6" x="263.19" y="222.98" width="8.5" height="6.8"/>
    <rect class="cls-6" x="263.19" y="14.17" width="8.5" height="157.79"/>
    <rect class="cls-6" x="287.66" y="11.75" width="39.69" height="10.92"/>
    <rect class="cls-6" x="271.69" y="144.69" width="5.74" height="8.5"/>
    <rect class="cls-6" x="322.78" y="144.69" width="72.75" height="8.5"/>
    <rect class="cls-6" x="18.96" y="10.61" width="26.59" height="12.06"/>
  </g>
  <g>
    <path class="cls-1" d="M330.99,313.69c-.02-15.66-12.73-28.33-28.39-28.3M302.69,342.08c15.66-.02,28.33-12.73,28.3-28.39M274.3,313.78c.02,15.66,12.73,28.33,28.39,28.3M302.6,285.39c-15.66.02-28.33,12.73-28.3,28.39"/>
    <path class="cls-1" d="M350.06,361l-85.04.13M265.09,406.49l130.39-.2M307.54,361.07l.07,45.35M265.02,361.13l.07,45.35M349.93,275.96l.13,85.04M395.49,406.29l-.2-130.39M350.06,361l45.35-.07M349.93,275.96l45.35-.07M350,318.48l45.35-.07M350.13,406.36l-.07-45.35"/>
  </g>
</svg>