<?xml version="1.0" encoding="UTF-8"?>
<svg id="Layer_1" data-name="Layer 1" xmlns="http://www.w3.org/2000/svg" viewBox="0 0 441.29 497.2">
  <defs>
    <style>
      .cls-1, .cls-2 {
        stroke: #727272;
      }

      .cls-1, .cls-2, .cls-3, .cls-4 {
        stroke-linecap: round;
        stroke-linejoin: round;
        stroke-width: .4px;
      }

      .cls-1, .cls-4 {
        fill: none;
      }

      .cls-2 {
        fill: #c4d2d6;
      }

      .cls-5 {
        fill: #2170b7;
      }

      .cls-3 {
        fill: #fff;
      }

      .cls-3, .cls-4 {
        stroke: #88d5ec;
      }

      .cls-6 {
        fill: #f7f7f7;
      }
    </style>
  </defs>
  <polygon class="cls-6" points="441.08 0 441.08 256.97 350.63 256.97 350.63 497.17 .2 497.17 .2 0 441.08 0"/>
  <rect class="cls-3" x="421.24" y="90.71" width="19.84" height="79.37"/>
  <rect class="cls-3" x="330.82" y="299.52" width="19.84" height="90.71"/>
  <g>
    <line class="cls-1" x1="149.85" y1="144.69" x2="149.85" y2="99.33"/>
    <path class="cls-1" d="M149.85,99.33c-25.05,0-45.35,20.31-45.35,45.35"/>
    <rect class="cls-1" x="104.5" y="144.69" width="45.35" height="8.5"/>
  </g>
  <g>
    <line class="cls-4" x1="343.57" y1="344.02" x2="343.57" y2="301.22"/>
    <line class="cls-4" x1="343.57" y1="388.53" x2="343.57" y2="345.72"/>
    <line class="cls-4" x1="341.59" y1="388.53" x2="341.59" y2="301.22"/>
    <line class="cls-4" x1="345.56" y1="388.53" x2="345.56" y2="301.22"/>
    <line class="cls-4" x1="350.63" y1="390.23" x2="350.63" y2="299.52"/>
    <line class="cls-4" x1="330.82" y1="390.23" x2="330.82" y2="299.52"/>
    <polyline class="cls-4" points="345.56 299.52 345.56 301.22 341.59 301.22 341.59 299.52 345.56 299.52"/>
    <polyline class="cls-4" points="345.56 345.72 345.56 344.02 341.59 344.02 341.59 345.72 345.56 345.72"/>
    <polyline class="cls-4" points="345.56 390.23 345.56 388.53 341.59 388.53 341.59 390.23 345.56 390.23"/>
  </g>
  <g>
    <line class="cls-4" x1="438.25" y1="129.54" x2="438.25" y2="92.41"/>
    <line class="cls-4" x1="438.25" y1="168.38" x2="438.25" y2="131.24"/>
    <line class="cls-4" x1="440.24" y1="168.38" x2="440.24" y2="92.41"/>
    <line class="cls-4" x1="441.09" y1="170.08" x2="441.09" y2="90.71"/>
    <line class="cls-4" x1="421.24" y1="170.08" x2="421.24" y2="90.71"/>
    <line class="cls-4" x1="436.27" y1="168.38" x2="436.27" y2="92.41"/>
    <polyline class="cls-4" points="436.27 90.71 436.27 92.41 440.24 92.41 440.24 90.71 436.27 90.71"/>
    <polyline class="cls-4" points="436.27 131.24 436.27 129.54 440.24 129.54 440.24 131.24 436.27 131.24"/>
    <polyline class="cls-4" points="436.27 170.08 436.27 168.38 440.24 168.38 440.24 170.08 436.27 170.08"/>
  </g>
  <g>
    <g>
      <line class="cls-1" x1="163.75" y1="212.84" x2="209.1" y2="212.84"/>
      <path class="cls-1" d="M209.1,212.84c0-25.05-20.31-45.35-45.35-45.35"/>
    </g>
    <rect class="cls-1" x="155.24" y="167.48" width="8.5" height="45.35"/>
  </g>
  <g>
    <g>
      <line class="cls-1" x1="14.37" y1="161.72" x2="65.4" y2="161.72"/>
      <path class="cls-1" d="M14.37,212.74c28.18,0,51.02-22.84,51.02-51.02"/>
    </g>
    <rect class="cls-2" x=".2" y="161.72" width="14.13" height="51.02"/>
  </g>
  <g>
    <g>
      <polyline class="cls-1" points="361.72 14.06 231.32 14.06 231.32 33.9"/>
      <line class="cls-1" x1="251.16" y1="127.44" x2="341.87" y2="127.44"/>
      <g>
        <line class="cls-1" x1="254" y1="124.61" x2="254" y2="58.05"/>
        <polyline class="cls-1" points="254 124.61 339.04 124.61 339.04 58.05"/>
        <line class="cls-1" x1="251.16" y1="14.06" x2="251.16" y2="33.9"/>
        <line class="cls-1" x1="231.32" y1="33.9" x2="251.16" y2="33.9"/>
        <line class="cls-1" x1="341.87" y1="14.06" x2="341.87" y2="33.9"/>
        <line class="cls-1" x1="361.72" y1="14.06" x2="361.72" y2="33.9"/>
        <line class="cls-1" x1="361.72" y1="33.9" x2="341.87" y2="33.9"/>
        <line class="cls-1" x1="330.13" y1="46.25" x2="330.13" y2="17.9"/>
        <polyline class="cls-1" points="330.13 46.25 296.12 46.25 296.12 17.9 330.13 17.9"/>
        <line class="cls-1" x1="341.87" y1="127.44" x2="341.87" y2="14.06"/>
        <line class="cls-1" x1="251.16" y1="127.44" x2="251.16" y2="14.06"/>
        <line class="cls-1" x1="262.91" y1="46.25" x2="262.91" y2="17.9"/>
        <polyline class="cls-1" points="262.91 46.25 296.93 46.25 296.93 17.9 262.91 17.9"/>
        <polyline class="cls-1" points="331.02 50.03 262.02 50.03 254 58.05"/>
        <polyline class="cls-1" points="254 58.05 262.02 58.05 262.02 50.03"/>
        <polyline class="cls-1" points="331.02 58.05 339.04 58.05 331.02 50.03"/>
        <line class="cls-1" x1="331.02" y1="58.05" x2="331.02" y2="50.03"/>
      </g>
    </g>
    <g>
      <path class="cls-1" d="M14.37,75.96c2.4-1.34,5.1-2.07,7.85-2.13"/>
      <path class="cls-1" d="M19.48,88.43c0-.54.44-.97.97-.97M20.45,89.4c-.54,0-.97-.44-.97-.97M21.43,88.43c0,.54-.44.97-.97.97M20.45,87.45c.54,0,.97.44.97.97"/>
      <path class="cls-1" d="M32.62,78.18c1.73,2.54,2.7,5.52,2.79,8.6"/>
      <path class="cls-1" d="M24.89,73.88c3.13.05,6.04,1.67,7.73,4.31"/>
      <path class="cls-1" d="M22.22,103.02c-2.75-.06-5.44-.79-7.85-2.13"/>
      <path class="cls-1" d="M32.62,98.67c-1.7,2.64-4.6,4.25-7.73,4.31"/>
      <path class="cls-1" d="M35.41,90.07c-.1,3.5-1.34,6.86-3.53,9.59"/>
      <path class="cls-1" d="M17.12,88.43c0-6.69,3.53-12.11,7.88-12.11M25,100.53c-4.35,0-7.88-5.42-7.88-12.11M32.88,88.43c0,6.69-3.53,12.11-7.88,12.11M25,76.32c4.35,0,7.88,5.42,7.88,12.11"/>
      <path class="cls-1" d="M35.41,90.22v-3.3M22.22,103.02l2.67-.05M22.22,73.83l2.67.05M19.48,88.43h-5.1M20.45,89.4v3.21M21.43,88.43h3.21M20.45,87.45v-3.21M14.37,100.89v-24.94"/>
    </g>
    <g>
      <path class="cls-1" d="M49.48,129.65c0,4.16-3.71,7.54-8.29,7.54M41.19,122.12c4.58,0,8.29,3.37,8.29,7.54M32.9,129.65c0-4.16,3.71-7.54,8.29-7.54M41.19,137.19c-4.58,0-8.29-3.37-8.29-7.54"/>
      <path class="cls-1" d="M24.3,119.63h0M20.83,116.16c1.92,0,3.47,1.56,3.47,3.47"/>
      <path class="cls-1" d="M24.3,139.99c0,1.92-1.56,3.47-3.47,3.47"/>
      <path class="cls-1" d="M31.21,121.21c-1.63.76-3.48.93-5.22.49"/>
      <path class="cls-1" d="M25.98,137.73c2.19-.55,4.52-.13,6.38,1.16"/>
      <path class="cls-1" d="M47.05,138.33c-4.34,2.34-10.07,2.56-14.69.56M50.33,123.72c4.38,4.73,2.91,11.27-3.28,14.61M31.21,121.21c6.19-3.34,14.75-2.22,19.13,2.51"/>
      <path class="cls-1" d="M14.37,143.46h6.47M24.3,119.63v20.4M25.98,121.7v16.03M20.83,116.16h-1.49M19.34,116.16h-4.96M14.37,116.16v27.3"/>
    </g>
    <g>
      <path class="cls-1" d="M27.41,42.12c1,0,1.81.81,1.81,1.81M25.6,43.94c0-1,.81-1.81,1.81-1.81M27.41,45.75c-1,0-1.81-.81-1.81-1.81M29.23,43.94c0,1-.81,1.81-1.81,1.81"/>
      <path class="cls-1" d="M28.55,58.96c-3.76,0-6.8-3.05-6.8-6.8"/>
      <path class="cls-1" d="M26,61.51c-3.76,0-6.8-3.05-6.8-6.8"/>
      <path class="cls-1" d="M21.74,35.72c0-3.76,3.05-6.8,6.8-6.8"/>
      <path class="cls-1" d="M19.19,33.17c0-3.76,3.05-6.8,6.8-6.8"/>
      <path class="cls-1" d="M80.99,28.91l2.16.37,2.03,1,1.78,1.48,1.39,1.81.95,2.11.52,2.24M90.06,26.36l1.59.11,1.58.15,1.56.21,1.53.31,1.48.43,1.43.6,1.55.9,1.44,1.12,1.3,1.31,1.12,1.46.92,1.58.68,1.66.29,1.02.21,1.04.14,1.05.09,1.06.06,1.07.05,1.07M80.99,58.96l2.16-.37,2.03-1,1.78-1.48,1.39-1.81.95-2.11.52-2.24.21-2.31.04-2.3M90.06,61.51l1.58-.12,1.57-.15,1.55-.21,1.53-.31,1.49-.43,1.45-.58,1.52-.84,1.43-1.03,1.3-1.2,1.13-1.35.93-1.47.7-1.56.33-1.1.22-1.13.14-1.15.08-1.16.04-1.17.02-1.18"/>
      <path class="cls-1" d="M107.92,65.2H14.37V22.68h93.54v42.52M19.19,54.71v-21.54M21.74,52.16v-16.44M107.07,45.35v-2.83M90.06,45.35v-2.83M28.55,28.91h52.44M26,26.36h64.06M80.99,58.96H28.55M90.06,61.51H26M27.41,42.12v-5.67M27.41,45.75v5.67M25.6,43.94h-11.23M29.23,43.94h5.67M89.8,37.91l.21,2.31.04,2.3"/>
    </g>
  </g>
  <g>
    <path class="cls-1" d="M149.54,239.29v34.02M214.74,273.3v-34.02"/>
    <line class="cls-1" x1="235.88" y1="239.29" x2="235.88" y2="273.3"/>
    <line class="cls-1" x1="267.06" y1="273.3" x2="235.88" y2="273.3"/>
    <polyline class="cls-1" points="149.54 273.3 126.63 273.3 126.63 238.29"/>
    <path class="cls-1" d="M258.22,259c-2.66,0-4.81,2.15-4.81,4.81M263.03,263.81c0-2.66-2.15-4.81-4.81-4.81M258.22,268.62c2.66,0,4.81-2.15,4.81-4.81M253.41,263.81c0,2.66,2.15,4.81,4.81,4.81"/>
    <path class="cls-1" d="M240.15,250.36c.34,2.63,2.76,4.49,5.39,4.14M244.29,244.97c-2.63.34-4.49,2.76-4.14,5.39M249.69,249.11c-.34-2.63-2.76-4.49-5.39-4.14M245.54,254.5c2.63-.34,4.49-2.76,4.14-5.39"/>
    <path class="cls-1" d="M245.22,259.7c-2.2,0-3.98,1.78-3.98,3.98M249.19,263.67c0-2.2-1.78-3.98-3.98-3.98M245.22,267.65c2.2,0,3.98-1.78,3.98-3.98M241.24,263.67c0,2.2,1.78,3.98,3.98,3.98"/>
    <path class="cls-1" d="M258.04,245.13c-2.2,0-3.98,1.78-3.98,3.98M262.02,249.11c0-2.2-1.78-3.98-3.98-3.98M258.04,253.08c2.2,0,3.98-1.78,3.98-3.98M254.06,249.11c0,2.2,1.78,3.98,3.98,3.98"/>
    <path class="cls-1" d="M183.4,265.49c0,1.57,1.27,2.83,2.83,2.83"/>
    <path class="cls-1" d="M186.23,244.08c-1.57,0-2.83,1.27-2.83,2.83"/>
    <path class="cls-1" d="M210.16,246.92c0-1.57-1.27-2.83-2.83-2.83"/>
    <path class="cls-1" d="M207.32,268.32c1.57,0,2.83-1.27,2.83-2.83"/>
    <path class="cls-1" d="M183.34,241.81c-.65,0-1.17.52-1.17,1.17M184.51,242.98c0-.65-.52-1.17-1.17-1.17M183.34,244.16c.65,0,1.17-.52,1.17-1.17M182.17,242.98c0,.65.52,1.17,1.17,1.17"/>
    <path class="cls-1" d="M188.23,246.17c-.94,0-1.7.76-1.7,1.7M189.94,247.87c0-.94-.76-1.7-1.7-1.7M188.23,249.58c.94,0,1.7-.76,1.7-1.7M186.53,247.87c0,.94.76,1.7,1.7,1.7"/>
    <path class="cls-1" d="M149.54,273.3h181.66M214.74,273.3v-34.02,34.02M214.74,239.29h-65.2M182.16,241.8l6.07,6.07M181.43,244.08h-25.65M181.43,245.51h-25.65M181.43,246.93h-25.65M181.43,248.35h-25.65M181.43,249.77h-25.65M181.43,251.19h-25.65M181.43,252.61h-25.65M181.43,254.03h-25.65M181.43,255.45h-25.65M181.43,256.87h-25.65M181.43,258.29h-25.65M181.43,259.71h-25.65M181.43,261.13h-25.65M181.43,262.55h-25.65M181.43,263.97h-25.65M181.43,265.39h-25.65M181.43,266.81h-25.65M181.43,268.24h-25.65M210.16,265.49v-18.57M207.32,268.32h-21.1M207.32,244.08h-21.1M183.4,246.92v18.57M237.58,271.6v-30.61M237.58,240.99h27.78M265.36,240.99v30.61M237.58,271.6h27.78M235.88,273.3h31.18v-34.02M267.06,239.29h-31.18M267.06,239.29v34.02"/>
  </g>
  <g>
    <rect class="cls-5" x="421.24" width="19.84" height="90.71" transform="translate(862.33 90.71) rotate(-180)"/>
    <rect class="cls-5" x="421.24" y="170.08" width="19.84" height="86.89" transform="translate(862.33 427.05) rotate(-180)"/>
    <rect class="cls-5" x=".2" width="421.04" height="14.17" transform="translate(421.44 14.17) rotate(-180)"/>
    <rect class="cls-5" x="361.72" y="14.17" width="39.69" height="8.5"/>
    <rect class="cls-5" x=".2" y="3.8" width="14.13" height="157.93"/>
    <rect class="cls-5" x=".2" y="212.77" width="14.13" height="284.43"/>
    <rect class="cls-5" x="168.35" y="314.89" width="14.13" height="350.43" transform="translate(665.53 314.69) rotate(90)"/>
    <rect class="cls-5" x="330.82" y="390.23" width="19.81" height="106.95"/>
    <rect class="cls-5" x="330.82" y="229.79" width="19.81" height="69.73"/>
    <rect class="cls-5" x="367.88" y="203.6" width="19.84" height="86.89" transform="translate(624.85 -130.75) rotate(90)"/>
    <rect class="cls-5" x="350.63" y="229.79" width="50.77" height="7.3"/>
    <rect class="cls-5" x="122.02" y="229.79" width="208.8" height="8.5"/>
    <rect class="cls-5" x="82.34" y="229.79" width="39.68" height="22.68"/>
    <rect class="cls-5" x="155.24" y="212.84" width="8.5" height="16.95"/>
    <rect class="cls-5" x="155.24" y="11.14" width="8.5" height="156.34"/>
    <rect class="cls-5" x="14.33" y="144.69" width="90.17" height="8.5"/>
    <rect class="cls-5" x="149.85" y="144.69" width="5.71" height="8.5"/>
    <rect class="cls-5" x="82.34" y="14.17" width="39.68" height="8.5"/>
  </g>
  <g>
    <path class="cls-1" d="M107.13,418.53c15.66-.02,28.33-12.73,28.3-28.39M78.74,390.23c.02,15.66,12.73,28.33,28.39,28.3M107.04,361.84c-15.66.02-28.33,12.73-28.3,28.39M135.43,390.14c-.02-15.66-12.73-28.33-28.39-28.3"/>
    <path class="cls-1" d="M59.82,437.6l-.13-85.04M14.33,352.63l.2,130.39M59.75,395.08l-45.35.07M59.69,352.56l-45.35.07M144.86,437.47l-85.04.13M14.53,483.02l130.39-.2M59.82,437.6l.07,45.35M144.86,437.47l.07,45.35M102.34,437.53l.07,45.35M14.46,437.67l45.35-.07"/>
  </g>
</svg>