<?xml version="1.0" encoding="UTF-8"?>
<svg id="Layer_1" data-name="Layer 1" xmlns="http://www.w3.org/2000/svg" viewBox="0 0 409.86 441.41">
  <defs>
    <style>
      .cls-1, .cls-2 {
        stroke: #727272;
      }

      .cls-1, .cls-2, .cls-3, .cls-4 {
        stroke-linecap: round;
        stroke-linejoin: round;
        stroke-width: .4px;
      }

      .cls-1, .cls-4 {
        fill: none;
      }

      .cls-2 {
        fill: #c4d2d6;
      }

      .cls-5 {
        fill: #2170b7;
      }

      .cls-3 {
        fill: #fff;
      }

      .cls-3, .cls-4 {
        stroke: #88d5ec;
      }

      .cls-6 {
        fill: #f7f7f7;
      }
    </style>
  </defs>
  <rect class="cls-6" x=".2" width="409.46" height="441.41"/>
  <rect class="cls-3" x=".2" y="286.92" width="19.84" height="79.37"/>
  <g>
    <g>
      <line class="cls-1" x1="241.48" y1="193.49" x2="241.48" y2="142.47"/>
      <path class="cls-1" d="M241.48,142.47c-28.18,0-51.02,22.84-51.02,51.02"/>
      <line class="cls-1" x1="331.37" y1="137.71" x2="331.37" y2="92.35"/>
      <path class="cls-1" d="M376.73,137.71c0-25.05-20.31-45.35-45.35-45.35"/>
      <line class="cls-1" x1="395.49" y1="266.66" x2="344.46" y2="266.66"/>
      <path class="cls-1" d="M395.49,215.63c-28.18,0-51.02,22.84-51.02,51.02"/>
    </g>
    <rect class="cls-1" x="190.46" y="193.49" width="51.02" height="8.5"/>
    <rect class="cls-2" x="395.49" y="215.63" width="14.17" height="51.02"/>
    <rect class="cls-1" x="331.37" y="137.71" width="45.59" height="8.5"/>
  </g>
  <g>
    <line class="cls-4" x1="10.03" y1="325.75" x2="10.03" y2="288.62"/>
    <line class="cls-4" x1="10.03" y1="364.59" x2="10.03" y2="327.45"/>
    <line class="cls-4" x1="8.04" y1="364.59" x2="8.04" y2="288.62"/>
    <line class="cls-4" x1=".2" y1="366.29" x2=".2" y2="286.92"/>
    <line class="cls-4" x1="20.04" y1="366.29" x2="20.04" y2="286.92"/>
    <line class="cls-4" x1="12.01" y1="364.59" x2="12.01" y2="288.62"/>
    <polyline class="cls-4" points="12.01 286.92 12.01 288.62 8.04 288.62 8.04 286.92 12.01 286.92"/>
    <polyline class="cls-4" points="12.01 327.45 12.01 325.75 8.04 325.75 8.04 327.45 12.01 327.45"/>
    <polyline class="cls-4" points="12.01 366.29 12.01 364.59 8.04 364.59 8.04 366.29 12.01 366.29"/>
  </g>
  <g>
    <rect class="cls-3" x=".23" y="31.29" width="19.81" height="79.37"/>
    <line class="cls-4" x1="10.17" y1="70.12" x2="10.17" y2="32.99"/>
    <line class="cls-4" x1="10.17" y1="108.96" x2="10.17" y2="71.82"/>
    <line class="cls-4" x1="8.19" y1="108.96" x2="8.19" y2="32.99"/>
    <line class="cls-4" x1=".23" y1="110.66" x2=".23" y2="31.29"/>
    <line class="cls-4" x1="20.04" y1="110.66" x2="20.04" y2="31.29"/>
    <line class="cls-4" x1="12.16" y1="108.96" x2="12.16" y2="32.99"/>
    <polyline class="cls-4" points="12.16 31.29 12.16 32.99 8.19 32.99 8.19 31.29 12.16 31.29"/>
    <polyline class="cls-4" points="12.16 71.82 12.16 70.12 8.19 70.12 8.19 71.82 12.16 71.82"/>
    <polyline class="cls-4" points="12.16 110.66 12.16 108.96 8.19 108.96 8.19 110.66 12.16 110.66"/>
  </g>
  <g>
    <polyline class="cls-1" points="206.89 14.17 76.5 14.17 76.5 34.02"/>
    <line class="cls-1" x1="96.34" y1="127.56" x2="187.05" y2="127.56"/>
    <g>
      <line class="cls-1" x1="99.17" y1="124.72" x2="99.17" y2="58.16"/>
      <polyline class="cls-1" points="99.17 124.72 184.21 124.72 184.21 58.16"/>
      <line class="cls-1" x1="96.34" y1="14.17" x2="96.34" y2="34.02"/>
      <line class="cls-1" x1="76.5" y1="34.02" x2="96.34" y2="34.02"/>
      <line class="cls-1" x1="187.05" y1="14.17" x2="187.05" y2="34.02"/>
      <line class="cls-1" x1="206.89" y1="14.17" x2="206.89" y2="34.02"/>
      <line class="cls-1" x1="206.89" y1="34.02" x2="187.05" y2="34.02"/>
      <line class="cls-1" x1="175.31" y1="46.36" x2="175.31" y2="18.02"/>
      <polyline class="cls-1" points="175.31 46.36 141.29 46.36 141.29 18.02 175.31 18.02"/>
      <line class="cls-1" x1="187.05" y1="127.56" x2="187.05" y2="14.17"/>
      <line class="cls-1" x1="96.34" y1="127.56" x2="96.34" y2="14.17"/>
      <line class="cls-1" x1="108.09" y1="46.36" x2="108.09" y2="18.02"/>
      <polyline class="cls-1" points="108.09 46.36 142.11 46.36 142.11 18.02 108.09 18.02"/>
      <polyline class="cls-1" points="176.2 50.15 107.19 50.15 99.17 58.16"/>
      <polyline class="cls-1" points="99.17 58.16 107.19 58.16 107.19 50.15"/>
      <polyline class="cls-1" points="176.2 58.16 184.21 58.16 176.2 50.15"/>
      <line class="cls-1" x1="176.2" y1="58.16" x2="176.2" y2="50.15"/>
    </g>
  </g>
  <g>
    <path class="cls-1" d="M344.49,14.17c1.34,2.4,2.07,5.1,2.13,7.85"/>
    <path class="cls-1" d="M332.02,19.28c.54,0,.97.44.97.97M331.05,20.25c0-.54.44-.97.97-.97M332.02,21.23c-.54,0-.97-.44-.97-.97M333,20.25c0,.54-.44.97-.97.97"/>
    <path class="cls-1" d="M342.27,32.42c-2.54,1.73-5.52,2.7-8.6,2.79"/>
    <path class="cls-1" d="M346.57,24.69c-.05,3.13-1.67,6.04-4.31,7.73"/>
    <path class="cls-1" d="M317.43,22.02c.06-2.75.79-5.44,2.13-7.85"/>
    <path class="cls-1" d="M321.78,32.42c-2.64-1.7-4.25-4.6-4.31-7.73"/>
    <path class="cls-1" d="M330.38,35.21c-3.5-.1-6.86-1.34-9.59-3.53"/>
    <path class="cls-1" d="M332.02,16.92c6.69,0,12.11,3.53,12.11,7.88M319.92,24.8c0-4.35,5.42-7.88,12.11-7.88M332.02,32.68c-6.69,0-12.11-3.53-12.11-7.88M344.13,24.8c0,4.35-5.42,7.88-12.11,7.88"/>
    <path class="cls-1" d="M330.23,35.21h3.3M317.43,22.02l.05,2.67M346.62,22.02l-.05,2.67M332.02,19.28v-5.1M331.05,20.25h-3.21M332.02,21.23v3.21M333,20.25h3.21M319.56,14.17h24.94"/>
  </g>
  <g>
    <path class="cls-1" d="M375.69,49.28c-4.16,0-7.54-3.71-7.54-8.29M383.23,40.99c0,4.58-3.37,8.29-7.54,8.29M375.69,32.7c4.16,0,7.54,3.71,7.54,8.29M368.16,40.99c0-4.58,3.37-8.29,7.54-8.29"/>
    <path class="cls-1" d="M385.71,24.1h0M389.19,20.63c0,1.92-1.56,3.47-3.47,3.47"/>
    <path class="cls-1" d="M365.36,24.1c-1.92,0-3.47-1.56-3.47-3.47"/>
    <path class="cls-1" d="M384.14,31.01c-.76-1.63-.93-3.48-.49-5.22"/>
    <path class="cls-1" d="M367.62,25.78c.55,2.19.13,4.52-1.16,6.38"/>
    <path class="cls-1" d="M367.02,46.85c-2.34-4.34-2.56-10.07-.56-14.69M381.63,50.13c-4.73,4.38-11.27,2.91-14.61-3.28M384.14,31.01c3.34,6.19,2.22,14.75-2.51,19.13"/>
    <path class="cls-1" d="M361.89,14.17v6.47M385.71,24.1h-20.4M383.64,25.78h-16.03M389.19,20.63v-1.49M389.19,19.14v-4.96M389.19,14.17h-27.3"/>
  </g>
  <g>
    <path class="cls-1" d="M278.73,27.21c0,1-.81,1.81-1.81,1.81M276.91,25.4c1,0,1.81.81,1.81,1.81M275.1,27.21c0-1,.81-1.81,1.81-1.81M276.91,29.03c-1,0-1.81-.81-1.81-1.81"/>
    <path class="cls-1" d="M261.89,28.35c0-3.76,3.05-6.8,6.8-6.8"/>
    <path class="cls-1" d="M259.34,25.8c0-3.76,3.05-6.8,6.8-6.8"/>
    <path class="cls-1" d="M285.13,21.54c3.76,0,6.8,3.05,6.8,6.8"/>
    <path class="cls-1" d="M287.68,18.99c3.76,0,6.8,3.05,6.8,6.8"/>
    <path class="cls-1" d="M291.94,80.79l-.37,2.16-1,2.03-1.48,1.78-1.81,1.39-2.11.95-2.24.52M294.49,89.86l-.11,1.59-.15,1.58-.21,1.56-.31,1.53-.43,1.48-.6,1.43-.9,1.55-1.12,1.44-1.31,1.3-1.46,1.12-1.58.92-1.66.68-1.02.29-1.04.21-1.05.14-1.06.09-1.07.06-1.07.05M261.89,80.79l.37,2.16,1,2.03,1.48,1.78,1.81,1.39,2.11.95,2.24.52,2.31.21,2.3.04M259.34,89.86l.12,1.58.15,1.57.21,1.55.31,1.53.43,1.49.58,1.45.84,1.52,1.03,1.43,1.2,1.3,1.35,1.13,1.47.93,1.56.7,1.1.33,1.13.22,1.15.14,1.16.08,1.17.04,1.18.02"/>
    <path class="cls-1" d="M255.65,107.72V14.17h42.52v93.54h-42.52M266.14,18.99h21.54M268.69,21.54h16.44M275.5,106.87h2.83M275.5,89.86h2.83M291.94,28.35v52.44M294.49,25.8v64.06M261.89,80.79V28.35M259.34,89.86V25.8M278.73,27.21h5.67M275.1,27.21h-5.67M276.91,25.4v-11.23M276.91,29.03v5.67M282.94,89.6l-2.31.21-2.3.04"/>
  </g>
  <g>
    <path class="cls-1" d="M166.3,427.23v-34.02M101.1,393.22v34.02"/>
    <line class="cls-1" x1="79.96" y1="427.23" x2="79.96" y2="393.22"/>
    <line class="cls-1" x1="48.78" y1="393.22" x2="79.96" y2="393.22"/>
    <path class="cls-1" d="M48.78,393.22h-28.74M195.26,393.22v34.02M79.96,427.23h115.3M166.3,393.22H49.32M166.3,393.22h28.96"/>
    <path class="cls-1" d="M19.57,427.23h34.02"/>
    <path class="cls-1" d="M57.62,407.52c2.66,0,4.81-2.15,4.81-4.81M52.81,402.71c0,2.66,2.15,4.81,4.81,4.81M57.62,397.9c-2.66,0-4.81,2.15-4.81,4.81M62.43,402.71c0-2.66-2.15-4.81-4.81-4.81"/>
    <path class="cls-1" d="M75.69,416.16c-.34-2.63-2.76-4.49-5.39-4.14M71.54,421.55c2.63-.34,4.49-2.76,4.14-5.39M66.15,417.41c.34,2.63,2.76,4.49,5.39,4.14M70.3,412.02c-2.63.34-4.49,2.76-4.14,5.39"/>
    <path class="cls-1" d="M70.62,406.83c2.2,0,3.98-1.78,3.98-3.98M66.65,402.85c0,2.2,1.78,3.98,3.98,3.98M70.62,398.87c-2.2,0-3.98,1.78-3.98,3.98M74.6,402.85c0-2.2-1.78-3.98-3.98-3.98"/>
    <path class="cls-1" d="M57.8,421.39c2.2,0,3.98-1.78,3.98-3.98M53.82,417.41c0,2.2,1.78,3.98,3.98,3.98M57.8,413.44c-2.2,0-3.98,1.78-3.98,3.98M61.78,417.41c0-2.2-1.78-3.98-3.98-3.98"/>
    <path class="cls-1" d="M132.44,401.03c0-1.57-1.27-2.83-2.83-2.83"/>
    <path class="cls-1" d="M129.61,422.44c1.57,0,2.83-1.27,2.83-2.83"/>
    <path class="cls-1" d="M105.68,419.6c0,1.57,1.27,2.83,2.83,2.83"/>
    <path class="cls-1" d="M108.51,398.2c-1.57,0-2.83,1.27-2.83,2.83"/>
    <path class="cls-1" d="M132.5,424.71c.65,0,1.17-.52,1.17-1.17M131.32,423.54c0,.65.52,1.17,1.17,1.17M132.5,422.37c-.65,0-1.17.52-1.17,1.17M133.67,423.54c0-.65-.52-1.17-1.17-1.17"/>
    <path class="cls-1" d="M127.61,420.35c.94,0,1.7-.76,1.7-1.7M125.9,418.65c0,.94.76,1.7,1.7,1.7M127.61,416.94c-.94,0-1.7.76-1.7,1.7M129.31,418.65c0-.94-.76-1.7-1.7-1.7"/>
    <path class="cls-1" d="M101.1,393.22v34.02-34.02M133.67,424.72l-6.07-6.07M134.41,422.44h25.65M134.41,421.02h25.65M134.41,419.6h25.65M134.41,418.17h25.65M134.41,416.75h25.65M134.41,415.33h25.65M134.41,413.91h25.65M134.41,412.49h25.65M134.41,411.07h25.65M134.41,409.65h25.65M134.41,408.23h25.65M134.41,406.81h25.65M134.41,405.39h25.65M134.41,403.97h25.65M134.41,402.55h25.65M134.41,401.13h25.65M134.41,399.71h25.65M134.41,398.29h25.65M105.68,401.03v18.57M108.51,398.2h21.1M108.51,422.44h21.1M132.44,419.6v-18.57M78.26,394.92v30.61M78.26,425.53h-27.78M50.48,425.53v-30.61M78.26,394.92h-27.78M79.96,393.22h-31.18v34.02M48.78,427.23h31.18M48.78,427.23v-34.02"/>
  </g>
  <g>
    <rect class="cls-5" x=".2" width="19.84" height="31.29"/>
    <rect class="cls-5" x=".2" y="110.66" width="19.84" height="176.26"/>
    <rect class="cls-5" x=".2" y="366.32" width="19.84" height="62.84"/>
    <rect class="cls-5" x="207.77" y="-187.72" width="14.17" height="389.62" transform="translate(207.77 221.94) rotate(-90)"/>
    <rect class="cls-5" x="395.49" y="14.17" width="14.17" height="201.46" transform="translate(805.15 229.81) rotate(-180)"/>
    <rect class="cls-5" x="395.49" y="266.66" width="14.17" height="174.75" transform="translate(805.15 708.06) rotate(-180)"/>
    <rect class="cls-5" x="190.77" y="236.69" width="14.17" height="395.26" transform="translate(632.18 236.46) rotate(90)"/>
    <rect class="cls-5" x="18.94" y="120.7" width="9.61" height="39.68"/>
    <rect class="cls-5" x="17.72" y="193.49" width="172.74" height="8.5"/>
    <rect class="cls-5" x="241.48" y="193.49" width="14.17" height="8.5" transform="translate(497.13 395.49) rotate(-180)"/>
    <rect class="cls-5" x="253.91" y="137.71" width="33.75" height="8.5" transform="translate(541.56 283.92) rotate(-180)"/>
    <rect class="cls-5" x="327.34" y="137.71" width="4.03" height="8.5" transform="translate(658.71 283.92) rotate(-180)"/>
    <rect class="cls-5" x="376.96" y="137.71" width="18.52" height="8.5" transform="translate(772.45 283.92) rotate(-180)"/>
    <rect class="cls-5" x="158.2" y="96.04" width="186.4" height="8.5" transform="translate(151.11 351.69) rotate(-90)"/>
    <rect class="cls-5" x="287.66" y="137.71" width="39.69" height="22.68"/>
  </g>
  <g>
    <path class="cls-1" d="M302.69,362.74c-15.66-.02-28.33-12.73-28.3-28.39M331.08,334.44c-.02,15.66-12.73,28.33-28.39,28.3M302.78,306.05c15.66.02,28.33,12.73,28.3,28.39M274.39,334.35c.02-15.66,12.73-28.33,28.39-28.3"/>
    <path class="cls-1" d="M350,381.81l.13-85.04M395.49,296.84l-.2,130.39M350.07,339.29l45.35.07M350.13,296.77l45.35.07M264.96,381.68l85.04.13M395.29,427.23l-130.39-.2M350,381.81l-.07,45.35M264.96,381.68l-.07,45.35M307.48,381.74l-.07,45.35M395.36,381.88l-45.35-.07"/>
  </g>
</svg>