<?xml version="1.0" encoding="UTF-8"?>
<svg id="Layer_1" data-name="Layer 1" xmlns="http://www.w3.org/2000/svg" viewBox="0 0 441.28 498.13">
  <defs>
    <style>
      .cls-1, .cls-2 {
        stroke: #727272;
      }

      .cls-1, .cls-2, .cls-3, .cls-4 {
        stroke-linecap: round;
        stroke-linejoin: round;
        stroke-width: .4px;
      }

      .cls-1, .cls-4 {
        fill: none;
      }

      .cls-2 {
        fill: #c4d2d6;
      }

      .cls-5 {
        fill: #2170b7;
      }

      .cls-3 {
        fill: #fff;
      }

      .cls-3, .cls-4 {
        stroke: #88d5ec;
      }

      .cls-6 {
        fill: #f7f7f7;
      }
    </style>
  </defs>
  <polygon class="cls-6" points="441.08 5.72 441.08 221.05 350.89 221.05 350.89 498.13 .23 498.13 .23 5.72 441.08 5.72"/>
  <rect class="cls-3" x="421.23" y="73.7" width="19.85" height="79.43"/>
  <rect class="cls-3" x="331.08" y="331.1" width="19.84" height="90.71"/>
  <g>
    <line class="cls-4" x1="438.27" y1="112.56" x2="438.27" y2="75.43"/>
    <line class="cls-4" x1="438.27" y1="151.4" x2="438.27" y2="114.26"/>
    <line class="cls-4" x1="440.26" y1="151.4" x2="440.26" y2="75.43"/>
    <line class="cls-4" x1="441.08" y1="153.1" x2="441.08" y2="73.73"/>
    <line class="cls-4" x1="421.23" y1="153.1" x2="421.23" y2="73.73"/>
    <line class="cls-4" x1="436.29" y1="151.4" x2="436.29" y2="75.43"/>
    <polyline class="cls-4" points="436.29 73.73 436.29 75.43 440.26 75.43 440.26 73.73 436.29 73.73"/>
    <polyline class="cls-4" points="436.29 114.26 436.29 112.56 440.26 112.56 440.26 114.26 436.29 114.26"/>
    <polyline class="cls-4" points="436.29 153.1 436.29 151.4 440.26 151.4 440.26 153.1 436.29 153.1"/>
  </g>
  <path class="cls-4" d="M348.08,375.6v-42.8M348.08,420.11v-42.8M346.1,420.11v-87.31M350.07,420.11v-87.31M350.89,420.11v-89.01M331.08,420.11v-89.01M350.07,331.1v1.7h-3.97v-1.7h3.97M350.07,377.31v-1.7h-3.97v1.7h3.97M350.07,421.81v-1.7h-3.97v1.7h3.97"/>
  <g>
    <g>
      <line class="cls-1" x1="25.73" y1="194.43" x2="25.73" y2="149.07"/>
      <path class="cls-1" d="M71.09,194.43c0-25.05-20.31-45.35-45.35-45.35"/>
    </g>
    <rect class="cls-1" x="25.73" y="194.43" width="45.32" height="8.5"/>
  </g>
  <g>
    <g>
      <line class="cls-1" x1="150.62" y1="201.23" x2="150.62" y2="150.21"/>
      <path class="cls-1" d="M201.64,201.23c0-28.18-22.84-51.02-51.02-51.02"/>
    </g>
    <rect class="cls-1" x="150.62" y="201.23" width="51.02" height="8.5"/>
  </g>
  <g>
    <g>
      <line class="cls-1" x1="14.39" y1="323.38" x2="65.42" y2="323.38"/>
      <path class="cls-1" d="M65.42,323.38c0-28.18-22.84-51.02-51.02-51.02"/>
    </g>
    <rect class="cls-2" x=".2" y="272.35" width="14.19" height="51.02"/>
  </g>
  <g>
    <g>
      <polyline class="cls-1" points="338.18 19.85 207.79 19.85 207.79 39.69"/>
      <line class="cls-1" x1="227.63" y1="133.24" x2="318.34" y2="133.24"/>
      <g>
        <line class="cls-1" x1="230.47" y1="130.4" x2="230.47" y2="63.84"/>
        <polyline class="cls-1" points="230.47 130.4 315.51 130.4 315.51 63.84"/>
        <line class="cls-1" x1="227.63" y1="19.85" x2="227.63" y2="39.69"/>
        <line class="cls-1" x1="207.79" y1="39.69" x2="227.63" y2="39.69"/>
        <line class="cls-1" x1="318.34" y1="19.85" x2="318.34" y2="39.69"/>
        <line class="cls-1" x1="338.18" y1="19.85" x2="338.18" y2="39.69"/>
        <line class="cls-1" x1="338.18" y1="39.69" x2="318.34" y2="39.69"/>
        <line class="cls-1" x1="306.6" y1="52.04" x2="306.6" y2="23.69"/>
        <polyline class="cls-1" points="306.6 52.04 272.59 52.04 272.59 23.69 306.6 23.69"/>
        <line class="cls-1" x1="318.34" y1="133.24" x2="318.34" y2="19.85"/>
        <line class="cls-1" x1="227.63" y1="133.24" x2="227.63" y2="19.85"/>
        <line class="cls-1" x1="239.38" y1="52.04" x2="239.38" y2="23.69"/>
        <polyline class="cls-1" points="239.38 52.04 273.4 52.04 273.4 23.69 239.38 23.69"/>
        <polyline class="cls-1" points="307.49 55.82 238.48 55.82 230.47 63.84"/>
        <polyline class="cls-1" points="230.47 63.84 238.48 63.84 238.48 55.82"/>
        <polyline class="cls-1" points="307.49 63.84 315.51 63.84 307.49 55.82"/>
        <line class="cls-1" x1="307.49" y1="63.84" x2="307.49" y2="55.82"/>
      </g>
    </g>
    <g>
      <path class="cls-1" d="M14.39,73.15c2.4-1.34,5.1-2.07,7.85-2.13"/>
      <path class="cls-1" d="M19.5,85.62c0-.54.44-.97.97-.97M20.47,86.59c-.54,0-.97-.44-.97-.97M21.45,85.62c0,.54-.44.97-.97.97M20.47,84.64c.54,0,.97.44.97.97"/>
      <path class="cls-1" d="M32.64,75.38c1.73,2.54,2.7,5.52,2.79,8.6"/>
      <path class="cls-1" d="M24.91,71.07c3.13.05,6.04,1.67,7.73,4.31"/>
      <path class="cls-1" d="M22.24,100.22c-2.75-.06-5.44-.79-7.85-2.13"/>
      <path class="cls-1" d="M32.64,95.86c-1.7,2.64-4.6,4.25-7.73,4.31"/>
      <path class="cls-1" d="M35.43,87.27c-.1,3.5-1.34,6.86-3.53,9.59"/>
      <path class="cls-1" d="M17.14,85.62c0-6.69,3.53-12.11,7.88-12.11M25.02,97.73c-4.35,0-7.88-5.42-7.88-12.11M32.9,85.62c0,6.69-3.53,12.11-7.88,12.11M25.02,73.51c4.35,0,7.88,5.42,7.88,12.11"/>
      <path class="cls-1" d="M35.43,87.42v-3.3M22.24,100.22l2.67-.05M22.24,71.02l2.67.05M19.5,85.62h-5.1M20.47,86.59v3.21M21.45,85.62h3.21M20.47,84.64v-3.21M14.39,98.09v-24.94"/>
    </g>
    <g>
      <path class="cls-1" d="M49.5,126.85c0,4.16-3.71,7.54-8.29,7.54M41.21,119.31c4.58,0,8.29,3.37,8.29,7.54M32.92,126.85c0-4.16,3.71-7.54,8.29-7.54M41.21,134.38c-4.58,0-8.29-3.37-8.29-7.54"/>
      <path class="cls-1" d="M24.32,116.83h0M20.85,113.35c1.92,0,3.47,1.56,3.47,3.47"/>
      <path class="cls-1" d="M24.32,137.18c0,1.92-1.56,3.47-3.47,3.47"/>
      <path class="cls-1" d="M31.23,118.4c-1.63.76-3.48.93-5.22.49"/>
      <path class="cls-1" d="M26,134.92c2.19-.55,4.52-.13,6.38,1.16"/>
      <path class="cls-1" d="M47.07,135.52c-4.34,2.34-10.07,2.56-14.69.56M50.36,120.91c4.38,4.73,2.91,11.27-3.28,14.61M31.23,118.4c6.19-3.34,14.75-2.22,19.13,2.51"/>
      <path class="cls-1" d="M14.39,140.65h6.47M24.32,116.83v20.4M26,118.9v16.03M20.85,113.35h-1.49M19.36,113.35h-4.96M14.39,113.35v27.3"/>
    </g>
    <g>
      <path class="cls-1" d="M27.43,39.32c1,0,1.81.81,1.81,1.81M25.62,41.13c0-1,.81-1.81,1.81-1.81M27.43,42.94c-1,0-1.81-.81-1.81-1.81M29.25,41.13c0,1-.81,1.81-1.81,1.81"/>
      <path class="cls-1" d="M28.57,56.15c-3.76,0-6.8-3.05-6.8-6.8"/>
      <path class="cls-1" d="M26.02,58.71c-3.76,0-6.8-3.05-6.8-6.8"/>
      <path class="cls-1" d="M21.76,32.91c0-3.76,3.05-6.8,6.8-6.8"/>
      <path class="cls-1" d="M19.21,30.36c0-3.76,3.05-6.8,6.8-6.8"/>
      <path class="cls-1" d="M81.01,26.11l2.16.37,2.03,1,1.78,1.48,1.39,1.81.95,2.11.52,2.24M90.08,23.56l1.59.11,1.58.15,1.56.21,1.53.31,1.48.43,1.43.6,1.55.9,1.44,1.12,1.3,1.31,1.12,1.46.92,1.58.68,1.66.29,1.02.21,1.04.14,1.05.09,1.06.06,1.07.05,1.07M81.01,56.15l2.16-.37,2.03-1,1.78-1.48,1.39-1.81.95-2.11.52-2.24.21-2.31.04-2.3M90.08,58.71l1.58-.12,1.57-.15,1.55-.21,1.53-.31,1.49-.43,1.45-.58,1.52-.84,1.43-1.03,1.3-1.2,1.13-1.35.93-1.47.7-1.56.33-1.1.22-1.13.14-1.15.08-1.16.04-1.17.02-1.18"/>
      <path class="cls-1" d="M107.94,62.39H14.39V19.87h93.54v42.52M19.21,51.9v-21.54M21.76,49.35v-16.44M107.09,42.55v-2.83M90.08,42.55v-2.83M28.57,26.11h52.44M26.02,23.56h64.06M81.01,56.15H28.57M90.08,58.71H26.02M27.43,39.32v-5.67M27.43,42.94v5.67M25.62,41.13h-11.23M29.25,41.13h5.67M89.83,35.1l.21,2.31.04,2.3"/>
    </g>
  </g>
  <g>
    <path class="cls-1" d="M184.34,483.95v-34.02M249.54,449.94v34.02"/>
    <line class="cls-1" x1="270.68" y1="483.95" x2="270.68" y2="449.94"/>
    <line class="cls-1" x1="301.86" y1="449.94" x2="270.68" y2="449.94"/>
    <path class="cls-1" d="M301.86,449.94h29.21M172.17,449.94v34.02M270.68,483.95h-98.51M184.34,449.94h-12.17M184.34,449.94h116.98"/>
    <path class="cls-1" d="M331.08,483.95h-34.02"/>
    <path class="cls-1" d="M293.02,454.62c-2.66,0-4.81,2.15-4.81,4.81M297.83,459.43c0-2.66-2.15-4.81-4.81-4.81M293.02,464.24c2.66,0,4.81-2.15,4.81-4.81M288.21,459.43c0,2.66,2.15,4.81,4.81,4.81"/>
    <path class="cls-1" d="M284.49,474.13c.34-2.63-1.51-5.05-4.14-5.39M279.1,478.28c2.63.34,5.05-1.51,5.39-4.14M274.95,472.88c-.34,2.63,1.51,5.05,4.14,5.39M280.34,468.74c-2.63-.34-5.05,1.51-5.39,4.14"/>
    <path class="cls-1" d="M280.02,455.59c-2.2,0-3.98,1.78-3.98,3.98M283.99,459.57c0-2.2-1.78-3.98-3.98-3.98M280.02,463.55c2.2,0,3.98-1.78,3.98-3.98M276.04,459.57c0,2.2,1.78,3.98,3.98,3.98"/>
    <path class="cls-1" d="M292.84,470.16c-2.2,0-3.98,1.78-3.98,3.98M296.82,474.14c0-2.2-1.78-3.98-3.98-3.98M292.84,478.11c2.2,0,3.98-1.78,3.98-3.98M288.86,474.14c0,2.2,1.78,3.98,3.98,3.98"/>
    <path class="cls-1" d="M221.03,454.92c-1.57,0-2.83,1.27-2.83,2.83"/>
    <path class="cls-1" d="M218.2,476.32c0,1.57,1.27,2.83,2.83,2.83"/>
    <path class="cls-1" d="M242.13,479.16c1.57,0,2.83-1.27,2.83-2.83"/>
    <path class="cls-1" d="M244.96,457.76c0-1.57-1.27-2.83-2.83-2.83"/>
    <path class="cls-1" d="M218.15,479.09c-.65,0-1.17.52-1.17,1.17M219.32,480.26c0-.65-.52-1.17-1.17-1.17M218.15,481.43c.65,0,1.17-.52,1.17-1.17M216.97,480.26c0,.65.52,1.17,1.17,1.17"/>
    <path class="cls-1" d="M223.03,473.67c-.94,0-1.7.76-1.7,1.7M224.74,475.37c0-.94-.76-1.7-1.7-1.7M223.03,477.08c.94,0,1.7-.76,1.7-1.7M221.33,475.37c0,.94.76,1.7,1.7,1.7"/>
    <polyline class="cls-1" points="249.54 449.94 249.54 483.95 249.54 449.94"/>
    <line class="cls-1" x1="216.97" y1="481.44" x2="223.03" y2="475.37"/>
    <line class="cls-1" x1="216.23" y1="479.16" x2="190.58" y2="479.16"/>
    <line class="cls-1" x1="216.23" y1="477.74" x2="190.58" y2="477.74"/>
    <line class="cls-1" x1="216.23" y1="476.32" x2="190.58" y2="476.32"/>
    <line class="cls-1" x1="216.23" y1="474.9" x2="190.58" y2="474.9"/>
    <line class="cls-1" x1="216.23" y1="473.48" x2="190.58" y2="473.48"/>
    <line class="cls-1" x1="216.23" y1="472.05" x2="190.58" y2="472.05"/>
    <line class="cls-1" x1="216.23" y1="470.63" x2="190.58" y2="470.63"/>
    <line class="cls-1" x1="216.23" y1="469.21" x2="190.58" y2="469.21"/>
    <line class="cls-1" x1="216.23" y1="467.79" x2="190.58" y2="467.79"/>
    <line class="cls-1" x1="216.23" y1="466.37" x2="190.58" y2="466.37"/>
    <line class="cls-1" x1="216.23" y1="464.95" x2="190.58" y2="464.95"/>
    <line class="cls-1" x1="216.23" y1="463.53" x2="190.58" y2="463.53"/>
    <line class="cls-1" x1="216.23" y1="462.11" x2="190.58" y2="462.11"/>
    <line class="cls-1" x1="216.23" y1="460.69" x2="190.58" y2="460.69"/>
    <line class="cls-1" x1="216.23" y1="459.27" x2="190.58" y2="459.27"/>
    <line class="cls-1" x1="216.23" y1="457.85" x2="190.58" y2="457.85"/>
    <line class="cls-1" x1="216.23" y1="456.43" x2="190.58" y2="456.43"/>
    <line class="cls-1" x1="216.23" y1="455.01" x2="190.58" y2="455.01"/>
    <line class="cls-1" x1="244.96" y1="457.76" x2="244.96" y2="476.32"/>
    <line class="cls-1" x1="242.13" y1="454.92" x2="221.03" y2="454.92"/>
    <line class="cls-1" x1="242.13" y1="479.16" x2="221.03" y2="479.16"/>
    <line class="cls-1" x1="218.2" y1="476.32" x2="218.2" y2="457.76"/>
    <line class="cls-1" x1="272.38" y1="451.64" x2="272.38" y2="482.25"/>
    <line class="cls-1" x1="272.38" y1="482.25" x2="300.16" y2="482.25"/>
    <line class="cls-1" x1="300.16" y1="482.25" x2="300.16" y2="451.64"/>
    <line class="cls-1" x1="272.38" y1="451.64" x2="300.16" y2="451.64"/>
    <polyline class="cls-1" points="270.68 449.94 301.86 449.94 301.86 483.95"/>
    <line class="cls-1" x1="301.86" y1="483.95" x2="270.68" y2="483.95"/>
    <line class="cls-1" x1="301.86" y1="483.95" x2="301.86" y2="449.94"/>
  </g>
  <g>
    <rect class="cls-5" x=".22" y="19.14" width="14.13" height="253.21"/>
    <rect class="cls-5" x=".22" y="323.38" width="14.13" height="174.75"/>
    <rect class="cls-5" x="168.37" y="-162.43" width="14.13" height="350.43" transform="translate(188.22 -162.65) rotate(90)"/>
    <rect class="cls-5" x="330.84" width="110.24" height="19.85"/>
    <rect class="cls-5" x="404.23" y="36.85" width="53.85" height="19.85" transform="translate(384.38 477.93) rotate(-90)"/>
    <rect class="cls-5" x="397.19" y="177.16" width="67.92" height="19.85" transform="translate(244.07 618.24) rotate(-90)"/>
    <rect class="cls-5" x="331.08" y="201.2" width="90.15" height="19.85" transform="translate(752.3 422.24) rotate(-180)"/>
    <rect class="cls-5" x="361.74" y="194.43" width="39.71" height="6.77"/>
    <rect class="cls-5" x="201.64" y="201.23" width="129.44" height="8.5"/>
    <rect class="cls-5" x="133.61" y="201.23" width="17.01" height="8.5"/>
    <rect class="cls-5" x="47.18" y="106.3" width="181.36" height="8.5" transform="translate(27.31 248.41) rotate(-90)"/>
    <rect class="cls-5" x="11.96" y="483.95" width="338.87" height="14.17"/>
    <rect class="cls-5" x="331.08" y="421.81" width="19.81" height="76.32"/>
    <rect class="cls-5" x="331.08" y="216.82" width="19.81" height="114.28"/>
    <rect class="cls-5" x="14.39" y="194.43" width="11.34" height="8.5"/>
    <rect class="cls-5" x="71.05" y="194.43" width="11.34" height="8.5"/>
    <rect class="cls-5" x="121.23" y="194.43" width="13.19" height="8.5"/>
    <polyline class="cls-5" points="122.04 217.1 122.04 202.93 122.04 194.43 82.36 194.43 82.36 202.93 82.36 217.1 122.04 217.1"/>
  </g>
  <g>
    <path class="cls-1" d="M107.15,419.5c15.66-.02,28.33-12.73,28.3-28.39M78.76,391.19c.02,15.66,12.73,28.33,28.39,28.3M107.06,362.8c-15.66.02-28.33,12.73-28.3,28.39M135.45,391.11c-.02-15.66-12.73-28.33-28.39-28.3"/>
    <path class="cls-1" d="M59.84,438.57l-.13-85.04M14.35,353.6l.2,130.39M59.77,396.05l-45.35.07M59.71,353.53l-45.35.07M144.88,438.44l-85.04.13M14.55,483.99l130.39-.2M59.84,438.57l.07,45.35M144.88,438.44l.07,45.35M102.36,438.5l.07,45.35M14.48,438.64l45.35-.07"/>
  </g>
</svg>