<?xml version="1.0" encoding="UTF-8"?>
<svg id="Layer_1" data-name="Layer 1" xmlns="http://www.w3.org/2000/svg" viewBox="0 0 460.83 541.62">
  <defs>
    <style>
      .cls-1, .cls-2 {
        stroke: #727272;
      }

      .cls-1, .cls-2, .cls-3, .cls-4 {
        stroke-linecap: round;
        stroke-linejoin: round;
        stroke-width: .4px;
      }

      .cls-1, .cls-4 {
        fill: none;
      }

      .cls-2 {
        fill: #c4d2d6;
      }

      .cls-5 {
        fill: #2170b7;
      }

      .cls-3 {
        fill: #fff;
      }

      .cls-3, .cls-4 {
        stroke: #88d5ec;
      }

      .cls-6 {
        fill: #f7f7f7;
      }
    </style>
  </defs>
  <polygon class="cls-6" points="460.83 114.52 460.83 541.39 .23 541.39 .23 0 409.66 0 409.66 114.52 460.83 114.52"/>
  <rect class="cls-3" x=".2" y="371.85" width="19.84" height="79.37"/>
  <g>
    <path class="cls-1" d="M320.86,174.05c25.05,0,45.35-20.31,45.35-45.35"/>
    <rect class="cls-1" x="320.86" y="120.19" width="45.35" height="8.5"/>
    <line class="cls-1" x1="320.86" y1="128.69" x2="320.86" y2="174.05"/>
  </g>
  <g>
    <line class="cls-1" x1="243.97" y1="311.56" x2="243.97" y2="362.48"/>
    <path class="cls-1" d="M243.97,362.48c28.12,0,50.92-22.8,50.92-50.92"/>
    <rect class="cls-1" x="243.97" y="303.12" width="50.92" height="8.51"/>
  </g>
  <g>
    <line class="cls-1" x1="395.49" y1="57.8" x2="344.46" y2="57.8"/>
    <path class="cls-1" d="M344.46,57.8c0,28.18,22.84,51.02,51.02,51.02"/>
    <rect class="cls-2" x="395.49" y="57.8" width="14.17" height="51.02"/>
  </g>
  <g>
    <g>
      <polyline class="cls-1" points="57.01 521.37 187.4 521.37 187.4 501.53"/>
      <line class="cls-1" x1="167.56" y1="407.99" x2="76.85" y2="407.99"/>
      <g>
        <line class="cls-1" x1="164.73" y1="410.82" x2="164.73" y2="477.38"/>
        <polyline class="cls-1" points="164.73 410.82 79.69 410.82 79.69 477.38"/>
        <line class="cls-1" x1="167.56" y1="521.37" x2="167.56" y2="501.53"/>
        <line class="cls-1" x1="187.4" y1="501.53" x2="167.56" y2="501.53"/>
        <line class="cls-1" x1="76.85" y1="521.37" x2="76.85" y2="501.53"/>
        <line class="cls-1" x1="57.01" y1="521.37" x2="57.01" y2="501.53"/>
        <line class="cls-1" x1="57.01" y1="501.53" x2="76.85" y2="501.53"/>
        <line class="cls-1" x1="88.59" y1="489.18" x2="88.59" y2="517.53"/>
        <polyline class="cls-1" points="88.59 489.18 122.61 489.18 122.61 517.53 88.59 517.53"/>
        <line class="cls-1" x1="76.85" y1="407.99" x2="76.85" y2="521.37"/>
        <line class="cls-1" x1="167.56" y1="407.99" x2="167.56" y2="521.37"/>
        <line class="cls-1" x1="155.81" y1="489.18" x2="155.81" y2="517.53"/>
        <polyline class="cls-1" points="155.81 489.18 121.79 489.18 121.79 517.53 155.81 517.53"/>
        <polyline class="cls-1" points="87.7 485.4 156.71 485.4 164.73 477.38"/>
        <polyline class="cls-1" points="164.73 477.38 156.71 477.38 156.71 485.4"/>
        <polyline class="cls-1" points="87.7 477.38 79.69 477.38 87.7 485.4"/>
        <line class="cls-1" x1="87.7" y1="477.38" x2="87.7" y2="485.4"/>
      </g>
    </g>
    <g>
      <path class="cls-1" d="M446.66,225.2c-2.4,1.34-5.1,2.07-7.85,2.13"/>
      <path class="cls-1" d="M441.55,212.73c0,.54-.44.97-.97.97M440.58,211.76c.54,0,.97.44.97.97M439.6,212.73c0-.54.44-.97.97-.97M440.58,213.71c-.54,0-.97-.44-.97-.97"/>
      <path class="cls-1" d="M428.41,222.98c-1.73-2.54-2.7-5.52-2.79-8.6"/>
      <path class="cls-1" d="M436.14,227.29c-3.13-.05-6.04-1.67-7.73-4.31"/>
      <path class="cls-1" d="M438.81,198.14c2.75.06,5.44.79,7.85,2.13"/>
      <path class="cls-1" d="M428.41,202.49c1.7-2.64,4.6-4.25,7.73-4.31"/>
      <path class="cls-1" d="M425.62,211.09c.1-3.5,1.34-6.86,3.53-9.59"/>
      <path class="cls-1" d="M443.91,212.73c0,6.69-3.53,12.11-7.88,12.11M436.03,200.63c4.35,0,7.88,5.42,7.88,12.11M428.15,212.73c0-6.69,3.53-12.11,7.88-12.11M436.03,224.84c-4.35,0-7.88-5.42-7.88-12.11"/>
      <path class="cls-1" d="M425.62,210.94v3.3M438.81,198.14l-2.67.05M438.81,227.33l-2.67-.05M441.55,212.73h5.1M440.58,211.76v-3.21M439.6,212.73h-3.21M440.58,213.71v3.21M446.66,200.27v24.94"/>
    </g>
    <g>
      <path class="cls-1" d="M411.55,157.12c0-4.16,3.71-7.54,8.29-7.54M419.84,164.65c-4.58,0-8.29-3.37-8.29-7.54M428.13,157.12c0,4.16-3.71,7.54-8.29,7.54M419.84,149.58c4.58,0,8.29,3.37,8.29,7.54"/>
      <path class="cls-1" d="M436.73,167.13h0M440.2,170.61c-1.92,0-3.47-1.56-3.47-3.47"/>
      <path class="cls-1" d="M436.73,146.78c0-1.92,1.56-3.47,3.47-3.47"/>
      <path class="cls-1" d="M429.82,165.56c1.63-.76,3.48-.93,5.22-.49"/>
      <path class="cls-1" d="M435.05,149.04c-2.19.55-4.52.13-6.38-1.16"/>
      <path class="cls-1" d="M413.98,148.44c4.34-2.34,10.07-2.56,14.69-.56M410.7,163.05c-4.38-4.73-2.91-11.27,3.28-14.61M429.82,165.56c-6.19,3.34-14.75,2.22-19.13-2.51"/>
      <path class="cls-1" d="M446.66,143.31h-6.47M436.73,167.13v-20.4M435.05,165.07v-16.03M440.2,170.61h1.49M441.69,170.61h4.96M446.66,170.61v-27.3"/>
    </g>
    <g>
      <path class="cls-1" d="M433.62,283.67c-1,0-1.81-.81-1.81-1.81M435.43,281.86c0,1-.81,1.81-1.81,1.81M433.62,280.04c1,0,1.81.81,1.81,1.81M431.8,281.86c0-1,.81-1.81,1.81-1.81"/>
      <path class="cls-1" d="M432.48,266.83c3.76,0,6.8,3.05,6.8,6.8"/>
      <path class="cls-1" d="M435.03,264.28c3.76,0,6.8,3.05,6.8,6.8"/>
      <path class="cls-1" d="M439.29,290.08c0,3.76-3.05,6.8-6.8,6.8"/>
      <path class="cls-1" d="M441.84,292.63c0,3.76-3.05,6.8-6.8,6.8"/>
      <path class="cls-1" d="M380.04,296.88l-2.16-.37-2.03-1-1.78-1.48-1.39-1.81-.95-2.11-.52-2.24M370.97,299.43l-1.59-.11-1.58-.15-1.56-.21-1.53-.31-1.48-.43-1.43-.6-1.55-.9-1.44-1.12-1.3-1.31-1.12-1.46-.92-1.58-.68-1.66-.29-1.02-.21-1.04-.14-1.05-.09-1.06-.06-1.07-.05-1.07M380.04,266.83l-2.16.37-2.03,1-1.78,1.48-1.39,1.81-.95,2.11-.52,2.24-.21,2.31-.04,2.3M370.97,264.28l-1.58.12-1.57.15-1.55.21-1.53.31-1.49.43-1.45.58-1.52.84-1.43,1.03-1.3,1.2-1.13,1.35-.93,1.47-.7,1.56-.33,1.1-.22,1.13-.14,1.15-.08,1.16-.04,1.17-.02,1.18"/>
      <path class="cls-1" d="M353.11,260.6h93.54v42.52h-93.54v-42.52M441.84,271.08v21.54M439.29,273.64v16.44M353.96,280.44v2.83M370.97,280.44v2.83M432.48,296.88h-52.44M435.03,299.43h-64.06M380.04,266.83h52.44M370.97,264.28h64.06M433.62,283.67v5.67M433.62,280.04v-5.67M435.43,281.86h11.23M431.8,281.86h-5.67M371.23,287.88l-.21-2.31-.04-2.3"/>
    </g>
    <polyline class="cls-1" points="238.31 486.04 283.66 486.07 283.74 384.03 238.38 383.99 238.31 486.04"/>
    <path class="cls-1" d="M314.86,467.67c0-7.04-5.7-12.76-12.75-12.77M302.09,480.42c7.04,0,12.76-5.7,12.77-12.75M289.35,467.65c0,7.04,5.7,12.76,12.75,12.77M302.11,454.91c-7.04,0-12.76,5.7-12.77,12.75"/>
    <path class="cls-1" d="M314.88,436.49c0-7.04-5.7-12.76-12.75-12.77M302.12,449.24c7.04,0,12.76-5.7,12.77-12.75M289.37,436.47c0,7.04,5.7,12.76,12.75,12.77M302.13,423.73c-7.04,0-12.76,5.7-12.77,12.75"/>
    <path class="cls-1" d="M314.9,405.31c0-7.04-5.7-12.76-12.75-12.77M302.14,418.06c7.04,0,12.76-5.7,12.77-12.75M289.39,405.29c0,7.04,5.7,12.76,12.75,12.77M302.16,392.54c-7.04,0-12.76,5.7-12.77,12.75"/>
    <path class="cls-1" d="M185.49,212.7c-.02,15.66,12.65,28.37,28.3,28.39M213.88,184.4c-15.66-.02-28.37,12.65-28.39,28.3M242.18,212.79c.02-15.66-12.65-28.37-28.3-28.39M213.79,241.09c15.66.02,28.37-12.65,28.39-28.3"/>
    <path class="cls-1" d="M261.25,165.47l-85.04-.13M176.28,119.99l130.39.2M218.73,165.41l.07-45.35M176.21,165.34l.07-45.35M261.12,250.51l.13-85.04M306.68,120.19l-.2,130.39M261.25,165.47l45.35.07M261.12,250.51l45.35.07M261.19,207.99l45.35.07M261.32,120.12l-.07,45.35"/>
  </g>
  <g>
    <path class="cls-1" d="M446.66,492.61h-34.02M412.64,427.41h34.02"/>
    <line class="cls-1" x1="446.66" y1="406.27" x2="412.64" y2="406.27"/>
    <line class="cls-1" x1="412.64" y1="375.09" x2="412.64" y2="406.27"/>
    <path class="cls-1" d="M412.64,375.09v-63.54M412.64,521.57h34.02M446.66,406.27v115.3M412.64,492.61v-116.98M412.64,492.61v28.96"/>
    <path class="cls-1" d="M417.32,383.93c0,2.66,2.15,4.81,4.81,4.81M422.13,379.13c-2.66,0-4.81,2.15-4.81,4.81M426.94,383.93c0-2.66-2.15-4.81-4.81-4.81M422.13,388.74c2.66,0,4.81-2.15,4.81-4.81"/>
    <path class="cls-1" d="M436.83,392.47c-2.63-.34-5.05,1.51-5.39,4.14M440.98,397.86c.34-2.63-1.51-5.05-4.14-5.39M435.59,402c2.63.34,5.05-1.51,5.39-4.14M431.44,396.61c-.34,2.63,1.51,5.05,4.14,5.39"/>
    <path class="cls-1" d="M418.3,396.94c0,2.2,1.78,3.98,3.98,3.98M422.27,392.96c-2.2,0-3.98,1.78-3.98,3.98M426.25,396.94c0-2.2-1.78-3.98-3.98-3.98M422.27,400.91c2.2,0,3.98-1.78,3.98-3.98"/>
    <path class="cls-1" d="M432.86,384.11c0,2.2,1.78,3.98,3.98,3.98M436.84,380.14c-2.2,0-3.98,1.78-3.98,3.98M440.81,384.11c0-2.2-1.78-3.98-3.98-3.98M436.84,388.09c2.2,0,3.98-1.78,3.98-3.98"/>
    <path class="cls-1" d="M417.62,455.92c0,1.57,1.27,2.83,2.83,2.83"/>
    <path class="cls-1" d="M439.03,458.76c1.57,0,2.83-1.27,2.83-2.83"/>
    <path class="cls-1" d="M441.86,434.83c0-1.57-1.27-2.83-2.83-2.83"/>
    <path class="cls-1" d="M420.46,431.99c-1.57,0-2.83,1.27-2.83,2.83"/>
    <path class="cls-1" d="M441.79,458.81c0,.65.52,1.17,1.17,1.17M442.96,457.64c-.65,0-1.17.52-1.17,1.17M444.13,458.81c0-.65-.52-1.17-1.17-1.17M442.96,459.98c.65,0,1.17-.52,1.17-1.17"/>
    <path class="cls-1" d="M436.37,453.92c0,.94.76,1.7,1.71,1.7M438.07,452.22c-.94,0-1.71.76-1.71,1.7M439.78,453.92c0-.94-.76-1.7-1.7-1.7M438.07,455.63c.94,0,1.7-.76,1.7-1.7"/>
    <path class="cls-1" d="M412.64,427.41h34.02-34.02M444.14,459.99l-6.07-6.07M441.86,460.72v25.65M440.44,460.72v25.65M439.02,460.72v25.65M437.6,460.72v25.65M436.18,460.72v25.65M434.76,460.72v25.65M433.34,460.72v25.65M431.92,460.72v25.65M430.5,460.72v25.65M429.07,460.72v25.65M427.65,460.72v25.65M426.23,460.72v25.65M424.81,460.72v25.65M423.39,460.72v25.65M421.97,460.72v25.65M420.55,460.72v25.65M419.13,460.72v25.65M417.71,460.72v25.65M420.46,431.99h18.57M417.62,434.83v21.1M441.86,434.83v21.1M439.03,458.76h-18.57M414.34,404.57h30.61M444.96,404.57v-27.78M444.96,376.79h-30.61M414.34,404.57v-27.78M412.64,406.27v-31.18h34.02M446.66,375.09v31.18M446.66,375.09h-34.02"/>
  </g>
  <g>
    <line class="cls-1" x1="224.2" y1="311.56" x2="224.2" y2="362.58"/>
    <path class="cls-1" d="M173.17,311.56c0,28.18,22.84,51.02,51.02,51.02"/>
    <rect class="cls-1" x="173.17" y="303.12" width="51.02" height="8.51"/>
  </g>
  <g>
    <line class="cls-4" x1="12.96" y1="410.68" x2="12.96" y2="373.55"/>
    <line class="cls-4" x1="12.96" y1="449.52" x2="12.96" y2="412.38"/>
    <line class="cls-4" x1="10.97" y1="449.52" x2="10.97" y2="373.55"/>
    <line class="cls-4" x1="14.94" y1="449.52" x2="14.94" y2="373.55"/>
    <polyline class="cls-4" points="14.94 371.85 14.94 373.55 10.97 373.55 10.97 371.85 14.94 371.85"/>
    <polyline class="cls-4" points="14.94 412.38 14.94 410.68 10.97 410.68 10.97 412.38 14.94 412.38"/>
    <polyline class="cls-4" points="14.94 451.22 14.94 449.52 10.97 449.52 10.97 451.22 14.94 451.22"/>
    <line class="cls-4" x1=".2" y1="371.85" x2=".2" y2="451.22"/>
    <line class="cls-4" x1="20.04" y1="371.85" x2="20.04" y2="451.22"/>
  </g>
  <g>
    <rect class="cls-3" x=".2" y="122.46" width="19.84" height="79.37"/>
    <line class="cls-4" x1="10.97" y1="161.29" x2="10.97" y2="124.16"/>
    <line class="cls-4" x1="10.97" y1="200.13" x2="10.97" y2="162.99"/>
    <line class="cls-4" x1="8.99" y1="200.13" x2="8.99" y2="124.16"/>
    <line class="cls-4" x1=".23" y1="201.83" x2=".23" y2="122.46"/>
    <line class="cls-4" x1="20.04" y1="201.83" x2="20.04" y2="122.46"/>
    <line class="cls-4" x1="12.96" y1="200.13" x2="12.96" y2="124.16"/>
    <polyline class="cls-4" points="12.96 122.46 12.96 124.16 8.99 124.16 8.99 122.46 12.96 122.46"/>
    <polyline class="cls-4" points="12.96 162.99 12.96 161.29 8.99 161.29 8.99 162.99 12.96 162.99"/>
    <polyline class="cls-4" points="12.96 201.83 12.96 200.13 8.99 200.13 8.99 201.83 12.96 201.83"/>
  </g>
  <g>
    <rect class="cls-3" x="332.95" y="521.37" width="68.03" height="20.05"/>
    <line class="cls-4" x1="367.82" y1="538.58" x2="399.29" y2="538.58"/>
    <line class="cls-4" x1="334.66" y1="538.58" x2="366.12" y2="538.58"/>
    <line class="cls-4" x1="334.66" y1="540.57" x2="399.29" y2="540.57"/>
    <line class="cls-4" x1="334.66" y1="536.6" x2="399.29" y2="536.6"/>
    <line class="cls-3" x1="332.95" y1="521.37" x2="400.99" y2="521.37"/>
    <line class="cls-4" x1="332.95" y1="541.42" x2="400.99" y2="541.42"/>
    <polyline class="cls-4" points="400.99 536.6 399.29 536.6 399.29 540.57 400.99 540.57 400.99 536.6"/>
    <polyline class="cls-4" points="366.12 536.6 367.82 536.6 367.82 540.57 366.12 540.57 366.12 536.6"/>
    <polyline class="cls-4" points="332.95 536.6 334.66 536.6 334.66 540.57 332.95 540.57 332.95 536.6"/>
  </g>
  <g>
    <rect class="cls-5" x=".2" y="11.79" width="19.84" height="110.66"/>
    <rect class="cls-5" x=".2" y="201.83" width="19.84" height="170.02"/>
    <rect class="cls-5" x=".2" y="451.22" width="19.84" height="70.33"/>
    <rect class="cls-5" x="395.49" y="7.03" width="14.17" height="50.77" transform="translate(805.15 64.83) rotate(-180)"/>
    <rect class="cls-5" x="395.49" y="108.82" width="14.17" height="19.87" transform="translate(805.15 237.51) rotate(-180)"/>
    <rect class="cls-5" x="421.65" y="102.25" width="14.17" height="38.72" transform="translate(307.13 550.35) rotate(-90)"/>
    <rect class="cls-5" x="197.86" y="-197.63" width="14.17" height="409.43" transform="translate(212.03 -197.86) rotate(90)"/>
    <rect class="cls-5" x="420.9" y="501.46" width="20.02" height="59.84" transform="translate(-100.47 962.29) rotate(-90)"/>
    <rect class="cls-5" x="156.57" y="365" width="20.02" height="332.75" transform="translate(-364.8 697.96) rotate(-90)"/>
    <rect class="cls-5" x="446.63" y="114.52" width="14.2" height="406.85" transform="translate(907.46 635.89) rotate(-180)"/>
    <rect class="cls-5" x="16.08" y="9.62" width="29.47" height="13.05"/>
    <rect class="cls-5" x="18" y="496.04" width="10.55" height="25.34"/>
    <rect class="cls-5" x="18.39" y="271.83" width="10.16" height="39.72"/>
    <rect class="cls-5" x="26.76" y="303.05" width="146.41" height="8.5"/>
    <rect class="cls-5" x="224.2" y="303.05" width="19.67" height="8.5"/>
    <rect class="cls-5" x="126.16" y="412.23" width="215.85" height="8.5" transform="translate(-182.4 650.57) rotate(-90)"/>
    <rect class="cls-5" x="294.89" y="303.05" width="151.77" height="8.5"/>
    <rect class="cls-5" x="219.16" y="207.71" width="183.54" height="8.5" transform="translate(98.97 522.89) rotate(-90)"/>
    <rect class="cls-5" x="304.66" y="271.83" width="22.68" height="31.22"/>
    <rect class="cls-5" x="315.18" y="120.19" width="5.68" height="8.5"/>
    <rect class="cls-5" x="366.22" y="120.19" width="31.92" height="8.5"/>
    <rect class="cls-5" x="287.66" y="11.91" width="39.69" height="10.58"/>
    <rect class="cls-5" x="287.89" y="513.07" width="39.45" height="11.34"/>
  </g>
</svg>