<?xml version="1.0" encoding="UTF-8"?>
<svg id="Layer_1" data-name="Layer 1" xmlns="http://www.w3.org/2000/svg" viewBox="0 0 489.2 547.24">
  <defs>
    <style>
      .cls-1, .cls-2 {
        stroke: #727272;
      }

      .cls-1, .cls-2, .cls-3, .cls-4 {
        stroke-linecap: round;
        stroke-linejoin: round;
        stroke-width: .4px;
      }

      .cls-1, .cls-4 {
        fill: none;
      }

      .cls-2 {
        fill: #c4d2d6;
      }

      .cls-5 {
        fill: #2170b7;
      }

      .cls-3 {
        fill: #fff;
      }

      .cls-3, .cls-4 {
        stroke: #88d5ec;
      }

      .cls-6 {
        fill: #f7f7f7;
      }
    </style>
  </defs>
  <polygon class="cls-6" points="489 5.67 489 297.32 455.01 297.32 455.01 547.06 0 547.06 0 120.19 48.12 120.19 48.12 5.67 489 5.67"/>
  <rect class="cls-3" x="56.48" y="527.04" width="68.03" height="20"/>
  <g>
    <line class="cls-4" x1="91.35" y1="544.25" x2="122.82" y2="544.25"/>
    <line class="cls-4" x1="58.19" y1="544.25" x2="89.65" y2="544.25"/>
    <line class="cls-4" x1="58.19" y1="546.24" x2="122.82" y2="546.24"/>
    <line class="cls-4" x1="56.48" y1="547.06" x2="124.52" y2="547.06"/>
    <line class="cls-4" x1="56.48" y1="527.06" x2="124.52" y2="527.06"/>
    <line class="cls-4" x1="58.19" y1="542.27" x2="122.82" y2="542.27"/>
    <polyline class="cls-4" points="124.52 542.27 122.82 542.27 122.82 546.24 124.52 546.24 124.52 542.27"/>
    <polyline class="cls-4" points="89.65 542.27 91.35 542.27 91.35 546.24 89.65 546.24 89.65 542.27"/>
    <polyline class="cls-4" points="56.48 542.27 58.19 542.27 58.19 546.24 56.48 546.24 56.48 542.27"/>
  </g>
  <g>
    <rect class="cls-3" x="468.99" y="99.21" width="20.02" height="90.71"/>
    <line class="cls-4" x1="476.25" y1="143.72" x2="476.25" y2="100.91"/>
    <line class="cls-4" x1="476.25" y1="188.22" x2="476.25" y2="145.42"/>
    <line class="cls-4" x1="474.26" y1="188.22" x2="474.26" y2="100.91"/>
    <line class="cls-4" x1="468.99" y1="189.92" x2="468.99" y2="99.21"/>
    <line class="cls-4" x1="488.95" y1="189.92" x2="488.95" y2="99.21"/>
    <line class="cls-4" x1="478.23" y1="188.22" x2="478.23" y2="100.91"/>
    <polyline class="cls-4" points="478.23 99.21 478.23 100.91 474.26 100.91 474.26 99.21 478.23 99.21"/>
    <polyline class="cls-4" points="478.23 145.42 478.23 143.72 474.26 143.72 474.26 145.42 478.23 145.42"/>
    <polyline class="cls-4" points="478.23 189.92 478.23 188.22 474.26 188.22 474.26 189.92 478.23 189.92"/>
  </g>
  <g>
    <rect class="cls-3" x="435" y="376.95" width="19.96" height="79.37"/>
    <path class="cls-4" d="M452.15,415.78v-37.13M452.15,454.62v-37.13M454.14,454.62v-75.97M454.96,456.32v-79.37M435,456.32v-79.37M450.17,454.62v-75.97M450.17,376.95v1.7h3.97v-1.7h-3.97M450.17,417.48v-1.7h3.97v1.7h-3.97M454.14,454.62v1.7h-3.97M450.17,456.32v-1.7h3.97"/>
  </g>
  <g>
    <g>
      <line class="cls-1" x1="62.29" y1="63.44" x2="113.32" y2="63.44"/>
      <path class="cls-1" d="M62.29,114.46c28.18,0,51.02-22.84,51.02-51.02"/>
    </g>
    <rect class="cls-2" x="48.1" y="63.44" width="14.19" height="51.02"/>
  </g>
  <g>
    <g>
      <line class="cls-1" x1="138.76" y1="134.25" x2="138.76" y2="179.6"/>
      <path class="cls-1" d="M93.41,134.25c0,25.05,20.31,45.35,45.35,45.35"/>
    </g>
    <rect class="cls-1" x="93.41" y="125.75" width="45.35" height="8.5"/>
  </g>
  <g>
    <g>
      <line class="cls-1" x1="238.35" y1="317.29" x2="238.35" y2="368.31"/>
      <path class="cls-1" d="M238.35,368.31c28.18,0,51.02-22.84,51.02-51.02"/>
    </g>
    <rect class="cls-1" x="238.35" y="308.79" width="51.02" height="8.51"/>
  </g>
  <g>
    <path class="cls-1" d="M14.2,498.1h34.02M48.22,432.9H14.2"/>
    <line class="cls-1" x1="14.2" y1="411.76" x2="48.22" y2="411.76"/>
    <line class="cls-1" x1="48.22" y1="380.58" x2="48.22" y2="411.76"/>
    <path class="cls-1" d="M48.22,380.58v-63.29M48.22,527.06H14.2M14.2,411.76v115.3M48.22,498.1v-116.98M48.22,498.1v28.96"/>
    <path class="cls-1" d="M33.92,389.42c0,2.66,2.15,4.81,4.81,4.81M38.73,384.61c-2.66,0-4.81,2.15-4.81,4.81M43.53,389.42c0-2.66-2.15-4.81-4.81-4.81M38.73,394.23c2.66,0,4.81-2.15,4.81-4.81"/>
    <path class="cls-1" d="M25.27,407.49c2.63-.34,4.49-2.76,4.14-5.39M19.88,403.35c.34,2.63,2.76,4.49,5.39,4.14M24.02,397.95c-2.63.34-4.49,2.76-4.14,5.39M29.42,402.1c-.34-2.63-2.76-4.49-5.39-4.14"/>
    <path class="cls-1" d="M34.61,402.42c0,2.2,1.78,3.98,3.98,3.98M38.59,398.45c-2.2,0-3.98,1.78-3.98,3.98M42.56,402.42c0-2.2-1.78-3.98-3.98-3.98M38.59,406.4c2.2,0,3.98-1.78,3.98-3.98"/>
    <path class="cls-1" d="M20.04,389.6c0,2.2,1.78,3.98,3.98,3.98M24.02,385.62c-2.2,0-3.98,1.78-3.98,3.98M28,389.6c0-2.2-1.78-3.98-3.98-3.98M24.02,393.58c2.2,0,3.98-1.78,3.98-3.98"/>
    <path class="cls-1" d="M40.4,464.24c1.57,0,2.83-1.27,2.83-2.83"/>
    <path class="cls-1" d="M19,461.41c0,1.57,1.27,2.83,2.83,2.83"/>
    <path class="cls-1" d="M21.83,437.48c-1.57,0-2.83,1.27-2.83,2.83"/>
    <path class="cls-1" d="M43.23,440.31c0-1.57-1.27-2.83-2.83-2.83"/>
    <path class="cls-1" d="M16.73,464.3c0,.65.52,1.17,1.17,1.17M17.9,463.13c-.65,0-1.17.52-1.17,1.17M19.07,464.3c0-.65-.52-1.17-1.17-1.17M17.9,465.47c.65,0,1.17-.52,1.17-1.17"/>
    <path class="cls-1" d="M21.08,459.41c0,.94.76,1.7,1.7,1.7M22.79,457.7c-.94,0-1.7.76-1.7,1.7M24.49,459.41c0-.94-.76-1.7-1.7-1.7M22.79,461.11c.94,0,1.7-.76,1.7-1.7"/>
    <path class="cls-1" d="M48.22,432.9H14.2h34.02M16.72,465.48l6.07-6.07M19,466.21v25.65M20.42,466.21v25.65M21.84,466.21v25.65M23.26,466.21v25.65M24.68,466.21v25.65M26.1,466.21v25.65M27.52,466.21v25.65M28.94,466.21v25.65M30.36,466.21v25.65M31.78,466.21v25.65M33.2,466.21v25.65M34.62,466.21v25.65M36.05,466.21v25.65M37.47,466.21v25.65M38.89,466.21v25.65M40.31,466.21v25.65M41.73,466.21v25.65M43.15,466.21v25.65M40.4,437.48h-18.57M43.23,440.31v21.1M19,440.31v21.1M21.83,464.24h18.57M46.52,410.06H15.9M15.9,410.06v-27.78M15.9,382.28h30.61M46.52,410.06v-27.78M48.22,411.76v-31.18s-34.02,0-34.02,0M14.2,380.58v31.18M14.2,380.58h34.02"/>
  </g>
  <g>
    <g>
      <path class="cls-1" d="M217.43,218.34c.02,15.66,12.73,28.33,28.39,28.3M245.73,189.95c-15.66.02-28.33,12.73-28.3,28.39M274.12,218.26c-.02-15.66-12.73-28.33-28.39-28.3M245.82,246.65c15.66-.02,28.33-12.73,28.3-28.39"/>
      <path class="cls-1" d="M198.36,171.03l85.04-.13M283.33,125.54l-130.39.2M240.88,170.96l-.07-45.35M283.4,170.9l-.07-45.35M198.49,256.07l-.13-85.04M152.93,125.75l.2,130.39M198.36,171.03l-45.35.07M198.49,256.07l-45.35.07M198.42,213.55l-45.35.07M198.29,125.68l.07,45.35"/>
    </g>
    <polyline class="cls-1" points="222.61 491.71 177.25 491.74 177.18 389.7 222.53 389.66 222.61 491.71"/>
    <path class="cls-1" d="M171.57,473.32c0-7.04-5.72-12.75-12.77-12.75M158.82,486.09c7.04,0,12.75-5.72,12.75-12.77M146.06,473.34c0,7.04,5.72,12.75,12.77,12.75M158.8,460.58c-7.04,0-12.75,5.72-12.75,12.77"/>
    <path class="cls-1" d="M171.55,442.14c0-7.04-5.72-12.75-12.77-12.75M158.8,454.91c7.04,0,12.75-5.72,12.75-12.77M146.03,442.16c0,7.04,5.72,12.75,12.77,12.75M158.78,429.4c-7.04,0-12.75,5.72-12.75,12.77"/>
    <path class="cls-1" d="M171.52,410.96c0-7.04-5.72-12.75-12.77-12.75M158.78,423.73c7.04,0,12.75-5.72,12.75-12.77M146.01,410.98c0,7.04,5.72,12.75,12.77,12.75M158.76,398.21c-7.04,0-12.75,5.72-12.75,12.77"/>
    <g>
      <polyline class="cls-1" points="270 527.04 400.4 527.04 400.4 507.2"/>
      <line class="cls-1" x1="380.55" y1="413.66" x2="289.84" y2="413.66"/>
      <g>
        <line class="cls-1" x1="377.72" y1="416.49" x2="377.72" y2="483.05"/>
        <polyline class="cls-1" points="377.72 416.49 292.68 416.49 292.68 483.05"/>
        <line class="cls-1" x1="380.55" y1="527.04" x2="380.55" y2="507.2"/>
        <line class="cls-1" x1="400.4" y1="507.2" x2="380.55" y2="507.2"/>
        <line class="cls-1" x1="289.84" y1="527.04" x2="289.84" y2="507.2"/>
        <line class="cls-1" x1="270" y1="527.04" x2="270" y2="507.2"/>
        <line class="cls-1" x1="270" y1="507.2" x2="289.84" y2="507.2"/>
        <line class="cls-1" x1="301.58" y1="494.85" x2="301.58" y2="523.2"/>
        <polyline class="cls-1" points="301.58 494.85 335.6 494.85 335.6 523.2 301.58 523.2"/>
        <line class="cls-1" x1="289.84" y1="413.66" x2="289.84" y2="527.04"/>
        <line class="cls-1" x1="380.55" y1="413.66" x2="380.55" y2="527.04"/>
        <line class="cls-1" x1="368.8" y1="494.85" x2="368.8" y2="523.2"/>
        <polyline class="cls-1" points="368.8 494.85 334.79 494.85 334.79 523.2 368.8 523.2"/>
        <polyline class="cls-1" points="300.7 491.07 369.7 491.07 377.72 483.05"/>
        <polyline class="cls-1" points="377.72 483.05 369.7 483.05 369.7 491.07"/>
        <polyline class="cls-1" points="300.7 483.05 292.68 483.05 300.7 491.07"/>
        <line class="cls-1" x1="300.7" y1="483.05" x2="300.7" y2="491.07"/>
      </g>
    </g>
    <g>
      <path class="cls-1" d="M14.2,232.22c2.4,1.34,5.1,2.07,7.85,2.13"/>
      <path class="cls-1" d="M19.3,219.75c0,.54.44.97.97.97M20.28,218.77c-.54,0-.97.44-.97.97M21.25,219.75c0-.54-.44-.97-.97-.97M20.28,220.72c.54,0,.97-.44.97-.97"/>
      <path class="cls-1" d="M32.45,229.99c1.73-2.54,2.7-5.52,2.79-8.6"/>
      <path class="cls-1" d="M24.72,234.3c3.13-.05,6.04-1.67,7.73-4.31"/>
      <path class="cls-1" d="M22.05,205.15c-2.75.06-5.44.79-7.85,2.13"/>
      <path class="cls-1" d="M32.45,209.5c-1.7-2.64-4.6-4.25-7.73-4.31"/>
      <path class="cls-1" d="M35.24,218.1c-.1-3.5-1.34-6.86-3.53-9.59"/>
      <path class="cls-1" d="M16.95,219.75c0,6.69,3.53,12.11,7.88,12.11M24.83,207.64c-4.35,0-7.88,5.42-7.88,12.11M32.71,219.75c0-6.69-3.53-12.11-7.88-12.11M24.83,231.85c4.35,0,7.88-5.42,7.88-12.11"/>
      <path class="cls-1" d="M35.24,217.95v3.3M22.05,205.15l2.67.05M22.05,234.34l2.67-.05M19.3,219.75h-5.1M20.28,218.77v-3.21M21.25,219.75h3.21M20.28,220.72v3.21M14.2,207.28v24.94"/>
    </g>
    <g>
      <path class="cls-1" d="M49.31,162.79c0-4.16-3.71-7.54-8.29-7.54M41.02,170.32c4.58,0,8.29-3.37,8.29-7.54M32.73,162.79c0,4.16,3.71,7.54,8.29,7.54M41.02,155.25c-4.58,0-8.29,3.37-8.29,7.54"/>
      <path class="cls-1" d="M24.13,172.8h0M20.65,176.28c1.92,0,3.47-1.56,3.47-3.47"/>
      <path class="cls-1" d="M24.13,152.45c0-1.92-1.56-3.47-3.47-3.47"/>
      <path class="cls-1" d="M31.03,171.23c-1.63-.76-3.48-.93-5.22-.49"/>
      <path class="cls-1" d="M25.81,154.71c2.19.55,4.52.13,6.38-1.16"/>
      <path class="cls-1" d="M46.88,154.11c-4.34-2.34-10.07-2.56-14.69-.56M50.16,168.72c4.38-4.73,2.91-11.27-3.28-14.61M31.03,171.23c6.19,3.34,14.75,2.22,19.13-2.51"/>
      <path class="cls-1" d="M14.2,148.98h6.47M24.13,172.8v-20.4M25.81,170.74v-16.03M20.65,176.28h-1.49M19.17,176.28h-4.96M14.2,176.28v-27.3"/>
    </g>
    <g>
      <path class="cls-1" d="M27.24,289.34c1,0,1.81-.81,1.81-1.81M25.43,287.53c0,1,.81,1.81,1.81,1.81M27.24,285.71c-1,0-1.81.81-1.81,1.81M29.06,287.53c0-1-.81-1.81-1.81-1.81"/>
      <path class="cls-1" d="M28.37,272.5c-3.76,0-6.8,3.05-6.8,6.8"/>
      <path class="cls-1" d="M25.82,269.95c-3.76,0-6.8,3.05-6.8,6.8"/>
      <path class="cls-1" d="M21.57,295.75c0,3.76,3.05,6.8,6.8,6.8"/>
      <path class="cls-1" d="M19.02,298.3c0,3.76,3.05,6.8,6.8,6.8"/>
      <path class="cls-1" d="M80.82,302.55l2.16-.37,2.03-1,1.78-1.48,1.39-1.81.95-2.11.52-2.24M89.89,305.1l1.59-.11,1.58-.15,1.56-.21,1.53-.31,1.48-.43,1.43-.6,1.55-.9,1.44-1.12,1.3-1.31,1.12-1.46.92-1.58.68-1.66.29-1.02.21-1.04.14-1.05.09-1.06.06-1.07.05-1.07M80.82,272.5l2.16.37,2.03,1,1.78,1.48,1.39,1.81.95,2.11.52,2.24.21,2.31.04,2.3M89.89,269.95l1.58.12,1.57.15,1.55.21,1.53.31,1.49.43,1.45.58,1.52.84,1.43,1.03,1.3,1.2,1.13,1.35.93,1.47.7,1.56.33,1.1.22,1.13.14,1.15.08,1.16.04,1.17.02,1.18"/>
      <path class="cls-1" d="M107.74,266.27H14.2v42.52h93.54v-42.52M19.02,276.75v21.54M21.57,279.31v16.44M106.89,286.11v2.83M89.89,286.11v2.83M28.37,302.55h52.44M25.82,305.1h64.06M80.82,272.5H28.37M89.89,269.95H25.82M27.24,289.34v5.67M27.24,285.71v-5.67M25.43,287.53h-11.23M29.06,287.53h5.67M89.63,293.55l.21-2.31.04-2.3"/>
    </g>
  </g>
  <g>
    <g>
      <line class="cls-1" x1="216.86" y1="317.29" x2="216.86" y2="368.31"/>
      <path class="cls-1" d="M165.83,317.29c0,28.18,22.84,51.02,51.02,51.02"/>
    </g>
    <rect class="cls-1" x="165.83" y="308.79" width="51.02" height="8.51"/>
  </g>
  <g>
    <rect class="cls-5" x="48.12" y="5.67" width="14.13" height="57.8"/>
    <rect class="cls-5" x="48.12" y="114.46" width="14.13" height="6.48"/>
    <rect class="cls-5" x="59.86" y="5.67" width="338.87" height="14.17"/>
    <rect class="cls-5" x="378.97" width="110.03" height="19.84"/>
    <rect class="cls-5" x="409.68" y="19.84" width="39.64" height="8.5"/>
    <rect class="cls-5" x="468.99" y="19.84" width="20.02" height="79.37"/>
    <rect class="cls-5" x="468.99" y="189.92" width="20.02" height="107.4"/>
    <rect class="cls-5" x="435" y="316.09" width="20.02" height="60.86"/>
    <rect class="cls-5" x="435" y="456.33" width="20.02" height="90.72"/>
    <rect class="cls-5" x="426.64" y="277.5" width="47.9" height="19.84"/>
    <rect class="cls-5" x="426.64" y="282.75" width="28.37" height="34.55"/>
    <rect class="cls-5" x="269.75" y="381.81" width="20.02" height="310.48" transform="translate(-257.29 816.81) rotate(-90)"/>
    <rect class="cls-5" x="18.23" y="508.81" width="20.02" height="56.48" transform="translate(-508.81 565.29) rotate(-90)"/>
    <rect class="cls-5" x="0" y="120.19" width="14.2" height="406.85" transform="translate(14.2 647.23) rotate(-180)"/>
    <rect class="cls-5" x="13.47" y="120.19" width="48.78" height="14.17"/>
    <rect class="cls-5" x="62.25" y="125.75" width="31.16" height="8.62"/>
    <rect class="cls-5" x="11.55" y="308.68" width="154.28" height="8.62"/>
    <rect class="cls-5" x="216.86" y="308.68" width="21.49" height="8.62"/>
    <rect class="cls-5" x="289.5" y="308.68" width="137.14" height="8.62"/>
    <rect class="cls-5" x="138.76" y="125.75" width="14.17" height="8.62"/>
    <rect class="cls-5" x="57.16" y="221.52" width="182.93" height="8.62" transform="translate(-77.2 374.45) rotate(-90)"/>
    <rect class="cls-5" x="120.68" y="419.16" width="212.35" height="8.62" transform="translate(-196.61 650.33) rotate(-90)"/>
    <rect class="cls-5" x="130.25" y="277.5" width="16.29" height="32.66"/>
    <rect class="cls-5" x="426.64" y="501.73" width="14.14" height="28.32"/>
    <rect class="cls-5" x="130.25" y="518.41" width="39.68" height="15.49"/>
    <rect class="cls-5" x="130.25" y="17.78" width="39.68" height="10.57"/>
  </g>
</svg>